<?xml version="1.0" encoding="utf-8"?>
<!-- Generator: Adobe Illustrator 19.0.0, SVG Export Plug-In . SVG Version: 6.00 Build 0)  -->
<svg version="1.1" id="Camada_1" xmlns="http://www.w3.org/2000/svg" xmlns:xlink="http://www.w3.org/1999/xlink" x="0px" y="0px"
	 viewBox="0 0 556 255" style="enable-background:new 0 0 556 255;" xml:space="preserve">
<style type="text/css">
	.st0{clip-path:url(#SVGID_2_);fill:#90378C;}
	.st1{fill:#90378C;}
	.st2{clip-path:url(#SVGID_4_);fill:none;stroke:#90388C;stroke-width:4;stroke-miterlimit:10;}
</style>
<g>
	<defs>
		<rect id="SVGID_1_" x="-432" y="-210" width="1280" height="720"/>
	</defs>
	<clipPath id="SVGID_2_">
		<use xlink:href="#SVGID_1_"  style="overflow:visible;"/>
	</clipPath>
	<path class="st0" d="M88.7,138.2c-3.8,7.7-14.3,12.4-25.1,7.2c-3.8-1.8-7.3-4.8-10-8.7c0.1,2.5,0.3,5,0.5,7.5
		c0.2,2.2-5.7,3.5-6.1-0.2c-2.4-19.5-3.1-38.6-2.9-54.1C35,78.7,35.9,54.7,47.7,42C61.7,27,86.5,33.7,92.7,56.1
		c5.2,19.5-4.1,41.6-24.9,52C87.3,105.7,96.4,122.4,88.7,138.2 M45.1,85.7c0.2-10.5,1-19.1,1.9-24.7c1.3-7.5,10.2-1.7,9.4,3.8v0
		c-2.4,12.2-3.6,28-3.7,45.8c11.2-4.3,35.8-25.8,31-52.6c-3.6-19.3-19.3-28.5-33.5-13.8C40.1,54.9,38.4,74.7,45.1,85.7 M52.7,113.5
		c0,5.3,0.2,10.7,0.4,16.3c2.6,5.8,6.9,10.7,11.6,12.5c6.9,2.6,13.6-2.3,15.9-9.2C87.5,113.1,72.9,106.6,52.7,113.5"/>
	<path class="st0" d="M140.8,111.4c-1.7,3.8-3.8,7.9-6.2,11.4c-9.6,14-21.9,14.3-27.7,8.4c-5.2-5.2-6.1-16.3-4-23.5
		c5-17.9,26.1-14.3,24.3-4.7c-1,5.9-9.1,8.1-15.2,8.5c-0.6,4-0.8,11.6,0.7,15.6c3,8.3,13.3,2,19.4-6.1c2.4-3.2,4.6-7.1,6.3-10.7
		C139,109.3,141.3,110.3,140.8,111.4 M112.5,108.9c4.7-0.4,11.5-2.1,12.2-6.3C125.7,97,115.9,94.2,112.5,108.9"/>
	<path class="st0" d="M165.3,124.9c-2.3,4.3-4.7,7.8-7.3,10.6c-2.6,2.8-5,4.2-7.3,4.2c-2.2,0-4.1-1.2-5.8-3.7
		c-1.6-2.5-2.9-5.9-3.9-10c-1-4.2-1.7-8.9-2.1-14.1c-0.3-5.2-0.4-10.7,0-16.3c0.3-5.6,1-11.1,2-16.5s2.4-10.2,4.1-14.6
		c1.7-4.4,3.8-8,6.3-10.7c3.1-3.2,5.9-4.5,8.4-3.8c2.5,0.7,4.2,3.2,4.9,7.3c0.5,3.3,0.2,7.1-0.9,11.2c-1.1,4.2-2.8,8.4-5.2,12.3
		c-2.4,4-5.4,7.3-8.8,9.9c0,0.2,0,0.5-0.1,1c-0.1,1.7-0.3,4.2-0.5,7.6c-0.2,3.5-0.5,7.2-0.7,11.4c-0.2,4.2-0.3,8.2-0.2,12
		c0,3.8,0.2,7,0.7,9.6c0.4,2.5,1.1,3.8,2.1,3.8c2,0,4.8-2.4,8.4-7.3c3.6-4.8,6.4-10.7,8.5-17.7c0-0.6,0-1.2,0-1.7
		c-0.1-5.5,0.3-11.1,1.2-16.7c0.8-5.6,2.2-10.9,4-15.7c1.8-4.8,4.2-8.9,7.1-12.1c3.1-3.2,5.9-4.5,8.4-3.8c2.5,0.7,4.2,3.2,4.9,7.3
		c0.5,3.3,0.2,7.1-0.9,11.2c-1.1,4.2-2.8,8.4-5.2,12.3c-2.4,4-5.4,7.3-8.8,9.9c0,0.3,0,0.8-0.1,1.3c-0.1,1.5-0.3,3.6-0.5,6.3
		c-0.2,2.6-0.3,5.5-0.4,8.5c-0.1,3-0.1,6,0,8.7c0.1,2.7,0.4,5,0.8,6.8c0.4,1.8,1.2,2.7,2.1,2.7c2,0,4.8-2.4,8.4-7.3
		c3.6-4.8,6.5-10.9,8.6-18c0.1-0.4,0.4-0.6,0.9-0.6c0.4,0,0.8,0,1.2,0.3c0.3,0.2,0.5,0.5,0.4,1c-1.2,4.8-2.8,9.3-5,13.5
		c-2.3,4.3-4.7,7.8-7.3,10.6c-2.6,2.8-5,4.2-7.3,4.2c-2.6,0-4.8-1.4-6.6-4.2c-1.8-2.8-3.2-6.5-4.2-11c-0.5-2-0.8-4.2-1.1-6.4
		C167.4,120.4,166.4,122.7,165.3,124.9 M151.9,71.7c-1,6.2-1.6,11.4-2,15.5c4.4-4,7.6-8.9,9.8-14.7c2.1-5.8,2.9-10.7,2.4-14.9
		c-0.2-1.7-0.7-3-1.4-4c-0.7-1-1.5-1.3-2.4-1c-1,0.3-1.9,1.7-2.9,4C154,60.4,152.8,65.4,151.9,71.7 M180.6,82.8
		c-1,6.2-1.6,11.4-2,15.5c4.4-4,7.6-8.9,9.8-14.7c2.1-5.8,2.9-10.7,2.4-14.9c-0.2-1.7-0.7-3-1.4-4c-0.7-1-1.5-1.3-2.4-1
		c-1,0.3-1.9,1.7-2.9,4C182.6,71.5,181.5,76.5,180.6,82.8"/>
	<path class="st0" d="M201.1,127c-1.8-1.8-3.1-4-3.9-6.7c-0.9-2.7-1.2-5.6-1.1-8.6c0.1-3,0.8-5.8,2-8.4c1.2-2.6,2.9-4.6,5.2-6.1
		c2.4-1.4,4.9-1.8,7.6-1.3c2.7,0.5,5.1,2.1,7,4.6c0-0.7,0.1-1.4,0.1-2v-0.2c0.1-1.4,0.8-2.4,1.8-2.7c1-0.3,2.2-0.3,3.5,0.1
		c1.3,0.4,2.4,1,3.3,1.8c0.9,0.8,1.2,1.5,1.1,2.2c-0.2,0.9-0.4,2.7-0.7,5.3c-0.2,2.6-0.5,5.7-0.6,9.1c-0.1,3.4-0.2,6.8-0.1,10
		c0,3.3,0.2,6,0.7,8.2c0.4,2.2,1.1,3.3,2,3.3c1.2,0,2.5-1.3,4.1-4c1.6-2.6,3.1-5.9,4.5-9.7c1.4-3.8,2.4-7.7,3.3-11.7
		c0.1-0.3,0.4-0.5,0.8-0.6c0.4,0,0.8,0,1.2,0.2c0.4,0.2,0.6,0.5,0.5,0.8c-0.9,5.4-2.2,10.3-3.9,14.8c-1.8,4.5-3.7,8.2-6,10.9
		c-2.2,2.8-4.4,4.2-6.4,4.2c-1.6,0-2.9-0.7-4-2c-1.2-1.3-2.1-3-2.9-5c-0.8-2.1-1.3-4.3-1.8-6.8c-0.4-2.4-0.7-4.8-0.9-7.1
		c-0.7,1.4-1.4,2.9-2.4,4.4c-0.9,1.5-2,2.8-3.2,3.8c-1.2,1.1-2.5,1.6-4,1.6C205.1,129.6,202.9,128.8,201.1,127 M212.5,122.3
		c1.5-2.2,3-5.3,4.7-9.3c0-0.4,0-1.1,0.1-1.8c0-0.7,0.1-1.4,0.1-2.2c0.1-1.2,0.1-2.1,0.2-2.7c-0.5-2-1.2-3.6-2.3-4.9
		c-1.1-1.3-2.3-1.9-3.6-1.8c-1.3,0.1-2.5,1.2-3.6,3.1c-1.2,2.5-1.9,5.6-2.1,9.1c-0.2,3.6,0,6.7,0.5,9.6c0.5,2.8,1.2,4.2,2.2,4.2
		C209.8,125.6,211,124.5,212.5,122.3"/>
	<path class="st0" d="M341.2,84.2c0.3,7.6,0.1,15.6-0.4,23.7c-0.6,8.1-1.3,15.8-2.1,23.2c-0.8,7.4-1.3,13.8-1.6,19.1
		c-0.3,5.3,0,8.8,1,10.6c0.4,0.6,0.5,1.1,0.2,1.4c-0.2,0.3-0.5,0.6-1,0.6c-0.4,0-0.7,0-1-0.1c-2.9-2.3-4.8-6.6-5.7-13.1
		c-0.9-6.5-1.2-14-0.9-22.7c0.3-8.7,0.8-17.5,1.4-26.4c0.5-7.2,0.9-13.8,1.2-19.9c0.2-6.1,0.2-11.1-0.2-15.1
		c-0.7-5.1-1.9-8.4-3.7-9.8c-1.8-1.4-3.8-1.1-6.1,0.8c-2.3,1.9-4.3,5.3-6.3,10c-2.4,6.2-4.2,13.5-5.5,22c-1.3,8.5-2.2,17-2.7,25.6
		c-0.5,8.6-0.8,16.3-0.9,22.9c-0.1,1.8-0.7,2.9-1.8,3.4c-1.1,0.5-2.2,0.5-3.3,0.1c-1.1-0.4-1.8-1.2-2-2.2
		c-0.9-7.6-1.4-14.9-1.6-21.9c-0.2-7-0.3-13.6-0.4-20c0-5.4-0.1-10.6-0.2-15.5c-0.1-4.9-0.5-9.6-1.1-14c-0.9-7.2-2.4-11.4-4.5-12.4
		c-2.2-1-4.9,1.8-8.3,8.3c-3.2,6.7-6.1,15.1-8.5,25.3c-2.4,10.2-4.4,20.2-5.7,30c-1.4,9.8-2,17.6-2,23.2c0,1.8-0.8,3-2.1,3.5
		c-1.3,0.6-2.7,0.7-4.2,0.4c-1.4-0.3-2.4-1-2.7-1.9c-2.5-8.8-4.3-18-5.1-27.8c-0.9-9.7-0.8-18.9,0.3-27.4c1.1-8.4,3.2-15.1,6.3-20.1
		c1.8-2.5,3.6-4.1,5.5-4.6c1.9-0.4,3.6,0.1,4.9,1.7c1.4,1.6,2.2,4.2,2.4,7.7c0.2,4.5-0.5,9.4-2.1,14.6c-1.6,5.2-3.9,9.7-6.9,13.4
		c0,1.4,0.1,2.9,0.2,4.4c0.3,7.2,0.6,14.1,0.6,20.8c0.7-6.2,1.9-13.2,3.4-21.2c1.5-7.9,3.4-15.7,5.6-23.5c2.2-7.7,4.7-14.3,7.4-19.8
		c3.1-5.7,6-8.9,8.9-9.6c2.8-0.7,5.4,0.3,7.7,2.9c2.3,2.6,4.1,6,5.6,10.3c1.2,3.5,2.1,7.2,2.7,11c0.6,3.8,1,7.6,1.2,11.3
		c0.6-3.6,1.4-7.3,2.4-11.2c1-3.8,2.1-7.5,3.5-10.9c2.6-6.1,5.6-10,8.7-11.8c3.1-1.8,6.1-1.7,9,0.1c2.8,1.9,5.1,5.3,6.9,10.3
		C339.7,69.9,340.8,76.6,341.2,84.2 M263.4,82c0,4.9,0.1,9.5,0.3,13.9c0,0.3,0,0.6,0,0.9c2.2-3.5,3.9-7.3,5.1-11.7
		c1.2-4.4,1.7-8.4,1.5-12c-0.3-3.6-1.2-5.9-2.5-6.8c-1.3-0.9-2.5,0.4-3.6,3.8C263.7,73.1,263.4,77.1,263.4,82"/>
	<path class="st0" d="M387.2,111.5c-4.6,4.1-8.9,5.5-15.3,6.5c-1.1,8.4-5.8,18.7-13.8,18.7c-9.5,0-12.3-12.7-10.8-24.2
		c0.3-1.4,0.2-2.3,3.2-1.4c-5.2-8.4,0.9-16.2,9.6-16.2c8.9,0,12.9,9.8,12.1,20.4c5.5-0.9,9.1-2.1,13.1-5.4
		C386.6,108.2,388.9,110,387.2,111.5 M353,110.3c3.5,4.8,10,5.9,15.8,5.5c1-8.8-1.2-17.8-8.9-18.3C353.4,97.1,348.1,103.6,353,110.3
		 M368.5,118.4c-3.8,0.2-8.9-0.3-12.2-2.1c-2.5,7.8-0.4,16,2.7,16.5C361.9,133.3,366.9,127.6,368.5,118.4"/>
	<path class="st0" d="M421.6,111.3c-1.7,7.6-6,20.6-11.5,26.3c-4.8,4.8-13.5,4.3-15.6-5.3c-0.9-4.2-0.3-8.5,0.7-12.7
		c1.7-7.2,2.9-6-2.8-5.8c-9.2,0.5-13-4.5-12-10c1.2-7.5,9.4-8.3,10-2.1c0.3,3-1.2,6.6-2.7,9.3c1.4,0.3,3,0.4,4.6,0.3
		c4.9-0.3,11.7-3.5,12.1,9.1c0.1,2.6-0.2,5.4-0.8,11c-0.2,2.5-1.2,8.4,3.9,3.6c5.2-4.8,9.7-17.4,11.6-24.2
		C419.4,109.7,421.9,110.2,421.6,111.3 M385.3,109.9c1.2-2.2,2.7-5.6,2.5-8c-0.3-3.3-4.2-2-4.9,2.3
		C382.5,106.8,383.5,108.9,385.3,109.9"/>
	<path class="st0" d="M424,127c-1.8-1.8-3.1-4-3.9-6.7c-0.9-2.7-1.2-5.6-1.1-8.6c0.1-3,0.8-5.8,2-8.4c1.2-2.6,2.9-4.6,5.2-6.1
		c2.4-1.4,4.9-1.8,7.6-1.3c2.7,0.5,5.1,2.1,7,4.6c0-0.7,0.1-1.4,0.1-2v-0.2c0.1-1.4,0.8-2.4,1.8-2.7c1-0.3,2.2-0.3,3.5,0.1
		c1.3,0.4,2.4,1,3.3,1.8c0.9,0.8,1.2,1.5,1.1,2.2c-0.2,0.9-0.4,2.7-0.7,5.3c-0.2,2.6-0.5,5.7-0.6,9.1c-0.1,3.4-0.2,6.8-0.1,10
		c0,3.3,0.2,6,0.7,8.2c0.4,2.2,1.1,3.3,2,3.3c1.2,0,2.5-1.3,4.1-4c1.6-2.6,3.1-5.9,4.5-9.7c1.4-3.8,2.4-7.7,3.3-11.7
		c0.1-0.3,0.4-0.5,0.8-0.6c0.4,0,0.8,0,1.2,0.2c0.4,0.2,0.6,0.5,0.5,0.8c-0.9,5.4-2.2,10.3-3.9,14.8c-1.8,4.5-3.7,8.2-6,10.9
		c-2.2,2.8-4.4,4.2-6.4,4.2c-1.6,0-2.9-0.7-4-2c-1.2-1.3-2.1-3-2.9-5c-0.8-2.1-1.3-4.3-1.8-6.8c-0.4-2.4-0.7-4.8-0.9-7.1
		c-0.7,1.4-1.4,2.9-2.4,4.4c-0.9,1.5-2,2.8-3.2,3.8c-1.2,1.1-2.5,1.6-4,1.6C428,129.6,425.7,128.8,424,127 M435.4,122.3
		c1.5-2.2,3-5.3,4.7-9.3c0-0.4,0-1.1,0.1-1.8c0-0.7,0.1-1.4,0.1-2.2c0.1-1.2,0.1-2.1,0.2-2.7c-0.5-2-1.2-3.6-2.3-4.9
		c-1.1-1.3-2.3-1.9-3.6-1.8c-1.3,0.1-2.5,1.2-3.6,3.1c-1.2,2.5-1.9,5.6-2.1,9.1c-0.2,3.6,0,6.7,0.5,9.6c0.5,2.8,1.2,4.2,2.2,4.2
		C432.7,125.6,433.9,124.5,435.4,122.3"/>
	<path class="st0" d="M500.4,111.4c-1.7,3.8-3.8,7.9-6.2,11.4c-9.6,14-21.9,14.3-27.7,8.4c-5.2-5.2-6.1-16.3-4-23.5
		c5-17.9,26.1-14.3,24.3-4.7c-1,5.9-9.1,8.1-15.2,8.5c-0.6,4-0.8,11.6,0.7,15.6c3,8.3,13.3,2,19.4-6.1c2.4-3.2,4.6-7.1,6.3-10.7
		C498.6,109.3,500.9,110.3,500.4,111.4 M472.1,108.9c4.7-0.4,11.5-2.1,12.2-6.3C485.3,97,475.5,94.2,472.1,108.9"/>
	<path class="st0" d="M520.4,111.8c-5.8,1.5-12,4.8-16.9,8.3c0,0.1,0.1,0.1,0.1,0.2c5.2,7.9,10.1,19.3,4.2,26.6
		c-9.3,11.5-31.4,3.3-20.1-15.3c1.8-2.9,4-5.4,6.5-7.8c-4.6-7.4-7.2-17.6-3.5-24.6c4.1-7.7,14.8-7.7,12.3,2.4
		c-0.8,3.1-2.6,6.5-4.8,8.7c0.8,2.1,1.8,4.2,3.6,7.2c6.6-4.5,13-7.2,17.9-8.3C522.2,108.7,522.7,111.2,520.4,111.8 M502.8,143.8
		c1.5-5.7-4.7-14.1-6.8-17.3c-2.1,2.1-3.9,4.3-5.4,6.8C481.4,149.1,500.3,152.4,502.8,143.8 M497.4,107.4c1.5-2,2.6-4.5,3.2-6.5
		c1.7-6.7-3.6-5.5-4,0.3C496.4,103.3,496.9,105.5,497.4,107.4"/>
</g>
<g>
	<path class="st1" d="M202.8,205.8c-0.5,10.5-4.7,22.4-12.3,22.4c-13.7,0.2-11.9-50.2,4-49c9.8,0.8,7.2,25.4-0.9,23.6
		c-4.6-1-4.1-10.2-0.9-12.7c1.1-0.9,2.1,0.1,1.2,0.6c-3,1.7-3.6,10.9,0.3,11c6.3,0.1,7.5-20.8,0.2-21c-10.8-0.2-10.1,45.2-3.1,45.4
		c2.1,0.1,9.7-5.7,10.5-20.5C201.7,205,202.8,204.8,202.8,205.8z"/>
	<path class="st1" d="M225.1,212.2c-2,1.8-3.9,2.4-6.7,2.8c-0.5,3.7-2.5,8.2-6,8.2c-4.1,0-5.4-5.6-4.7-10.6c0.1-0.6,0.1-1,1.4-0.6
		c-2.3-3.7,0.4-7.1,4.2-7.1c3.9,0,5.6,4.3,5.3,8.9c2.4-0.4,4-0.9,5.7-2.4C224.8,210.7,225.9,211.5,225.1,212.2z M210.2,211.6
		c1.5,2.1,4.4,2.6,6.9,2.4c0.4-3.9-0.5-7.8-3.9-8C210.3,205.9,208,208.7,210.2,211.6z M216.9,215.2c-1.7,0.1-3.9-0.1-5.4-0.9
		c-1.1,3.4-0.2,7,1.2,7.2C214.1,221.7,216.2,219.2,216.9,215.2z"/>
	<path class="st1" d="M248,212.1c-0.6,3.5-2.3,9.1-4.9,11.5c-2.1,1.9-4.7,1.2-5.9-1.8c-1.6-3.9-0.4-9-1.6-12.9
		c-1-2.7-2.4-1.9-3.7,0.7c-1.7,3.1-2.6,8.3-3.4,12.3c-0.1,0.6-2.8,0.8-2.9,0.1c-0.5-3.3-1-8.4-1.3-11.4c0-1.7,4.3-0.7,4.3,0.1
		c-0.3,2.5-0.7,5-0.9,7.8c0.7-3,1.7-6.8,3.2-9.4c2.2-3.7,5.6-3.9,7.8-1.6c3.1,3.2,1.9,10,1.7,13.8c-0.1,2,0.2,2.6,1.8,1.4
		c2.4-1.9,4.2-7.4,4.8-10.5C247,211.4,248.1,211.6,248,212.1z"/>
	<path class="st1" d="M261.6,212.2c-2.1,3.4-5,6.4-8.3,8.3c0.4,1.3,0.4,2.7-0.2,3.8c-1.3,2.6-4.4,2.2-6.2-1.8
		c-3.6-0.4-4.4-3.9-1.3-5.4c-0.2-2.3-0.1-6.4,0.1-8.2c1.9-14.7,11.7-16.6,11.2-8.9c-0.3,3.8-2.8,8.1-7,10.4
		c-0.1,1.2-0.4,4.7-0.4,6.5c1.6,0.4,2.8,1.4,3.4,2.6c3-1.8,5.8-4.7,7.7-7.9C261,211,262,211.5,261.6,212.2z M246.4,221.3
		c-0.3-0.8-0.5-1.8-0.7-2.9C244.4,219.2,244.5,220.7,246.4,221.3z M249.5,221c0.7-0.2,1.4-0.5,2.1-0.8c-0.4-0.8-1.2-1.6-2.2-2
		C249.4,219.1,249.4,220.1,249.5,221z M252,221.3c-0.8,0.4-1.5,0.7-2.4,0.9c0.3,2.1,1,3.5,2.1,1.5C252.1,223,252.2,222.1,252,221.3z
		 M250,209c3.4-2.2,5.5-6,5.7-9.1C256,195.6,252.1,193.4,250,209z"/>
	<path class="st1" d="M277.7,212.1c-0.7,1.7-1.7,3.5-2.7,5c-4.2,6.1-9.6,6.2-12.1,3.7c-2.3-2.3-2.7-7.1-1.8-10.3
		c2.2-7.8,11.4-6.3,10.6-2.1c-0.4,2.6-4,3.5-6.6,3.7c-0.3,1.8-0.3,5.1,0.3,6.8c1.3,3.6,5.8,0.9,8.5-2.7c1-1.4,2-3.1,2.8-4.7
		C276.9,211.2,278,211.6,277.7,212.1z M265.4,211c2-0.2,5-0.9,5.3-2.8C271.1,205.8,266.8,204.6,265.4,211z"/>
	<path class="st1" d="M289.8,212c-0.9,4.3-3.6,13.9-7.7,13.9c-5,0-5.1-10.9-5-15.5c0-2.5,4.3-0.8,4.2,0.4
		c-0.3,3.3-0.5,13.2,1.2,13.2c1.9,0,4.7-6.2,6.2-12.3C288.8,211.3,289.9,211.5,289.8,212z M279.4,205.1c-1.1,0-1.9,0.7-1.9,1.6
		c0,0.9,0.9,1.6,1.9,1.6c1,0,1.9-0.7,1.9-1.6C281.3,205.9,280.5,205.1,279.4,205.1z"/>
	<path class="st1" d="M299.9,211.8c-0.5,3-2.7,11.9-6.5,11.8c-6.6-0.1-5.3-20.8-4.8-30.4c-1.2,0-2.4,0-3.8,0c-0.7,0-0.7-1.6,0-1.7
		c1.4,0,2.8,0.1,3.9,0.1c0.2-3.1,0.5-5.3,0.7-5.8c0.5-1.5,4.3-0.3,4,2.4c-0.1,1.2-0.3,2.5-0.4,3.7c1.7,0.1,3.1,0.2,4.4,0.3
		c0.4,0,0.4,1.1,0,1.1c-1.3,0-2.8,0-4.5-0.1c-1,12.7-0.5,28.4,0.9,28.4c1.6,0,4.1-4.7,5.1-10.1C298.9,211.2,300,211.4,299.9,211.8z"
		/>
	<path class="st1" d="M300.7,218.9c-0.8-0.8-1.4-1.7-1.7-2.9c-0.4-1.2-0.5-2.4-0.5-3.8c0.1-1.3,0.3-2.5,0.9-3.7s1.3-2,2.3-2.7
		c1-0.6,2.1-0.8,3.3-0.6s2.2,0.9,3.1,2c0-0.3,0-0.6,0.1-0.9v-0.1c0.1-0.6,0.3-1,0.8-1.2s0.9-0.1,1.5,0.1c0.6,0.2,1,0.4,1.4,0.8
		c0.4,0.3,0.5,0.7,0.5,1c-0.1,0.4-0.2,1.2-0.3,2.3c-0.1,1.2-0.2,2.5-0.3,4s-0.1,3-0.1,4.4c0,1.4,0.1,2.6,0.3,3.6
		c0.2,0.9,0.5,1.4,0.9,1.4c0.5,0,1.1-0.6,1.8-1.7c0.7-1.2,1.3-2.6,2-4.2s1.1-3.4,1.4-5.1c0-0.1,0.2-0.2,0.4-0.3c0.2,0,0.4,0,0.5,0.1
		s0.3,0.2,0.2,0.4c-0.4,2.4-0.9,4.5-1.7,6.5c-0.8,2-1.6,3.6-2.6,4.8c-1,1.2-1.9,1.8-2.8,1.8c-0.7,0-1.3-0.3-1.8-0.9
		c-0.5-0.6-0.9-1.3-1.3-2.2s-0.6-1.9-0.8-3c-0.2-1-0.3-2.1-0.4-3.1c-0.3,0.6-0.6,1.3-1,1.9c-0.4,0.7-0.9,1.2-1.4,1.7
		c-0.5,0.5-1.1,0.7-1.8,0.7C302.4,220.1,301.5,219.7,300.7,218.9z M305.7,216.9c0.7-0.9,1.3-2.3,2-4.1c0-0.2,0-0.5,0-0.8
		c0-0.3,0-0.6,0.1-1c0-0.5,0.1-0.9,0.1-1.2c-0.2-0.9-0.5-1.6-1-2.2c-0.5-0.6-1-0.8-1.6-0.8c-0.6,0-1.1,0.5-1.6,1.4
		c-0.5,1.1-0.8,2.4-0.9,4c-0.1,1.6,0,2.9,0.2,4.2c0.2,1.2,0.5,1.8,0.9,1.8C304.5,218.3,305,217.8,305.7,216.9z"/>
	<path class="st1" d="M333.5,212.1c-0.8,3.3-2.6,9-5,11.5c-2.1,2.1-5.9,1.9-6.8-2.3c-0.4-1.8-0.1-3.7,0.3-5.6
		c0.8-3.2,1.3-2.6-1.2-2.5c-4,0.2-5.7-2-5.3-4.4c0.5-3.3,4.1-3.6,4.4-0.9c0.1,1.3-0.5,2.9-1.2,4.1c0.6,0.1,1.3,0.2,2,0.1
		c2.2-0.1,5.1-1.5,5.3,4c0,1.1-0.1,2.4-0.3,4.8c-0.1,1.1-0.5,3.7,1.7,1.6c2.3-2.1,4.3-7.6,5.1-10.6
		C332.5,211.3,333.6,211.6,333.5,212.1z M317.6,211.5c0.5-1,1.2-2.4,1.1-3.5c-0.1-1.4-1.8-0.9-2.1,1
		C316.3,210.1,316.8,211,317.6,211.5z"/>
	<path class="st1" d="M345.3,212c-0.9,4.3-3.6,13.9-7.7,13.9c-5,0-5.1-10.9-5-15.5c0-2.5,4.3-0.8,4.2,0.4
		c-0.3,3.3-0.5,13.2,1.2,13.2c1.9,0,4.7-6.2,6.2-12.3C344.3,211.3,345.4,211.5,345.3,212z M334.9,205.1c-1.1,0-1.9,0.7-1.9,1.6
		c0,0.9,0.9,1.6,1.9,1.6c1,0,1.9-0.7,1.9-1.6C336.8,205.9,336,205.1,334.9,205.1z"/>
	<path class="st1" d="M346,218.9c-0.8-0.8-1.4-1.7-1.7-2.9c-0.4-1.2-0.5-2.4-0.5-3.8c0.1-1.3,0.3-2.5,0.9-3.7s1.3-2,2.3-2.7
		c1-0.6,2.1-0.8,3.3-0.6s2.2,0.9,3.1,2c0-0.3,0-0.6,0.1-0.9v-0.1c0.1-0.6,0.3-1,0.8-1.2s0.9-0.1,1.5,0.1c0.6,0.2,1,0.4,1.4,0.8
		c0.4,0.3,0.5,0.7,0.5,1c-0.1,0.4-0.2,1.2-0.3,2.3c-0.1,1.2-0.2,2.5-0.3,4s-0.1,3-0.1,4.4c0,1.4,0.1,2.6,0.3,3.6
		c0.2,0.9,0.5,1.4,0.9,1.4c0.5,0,1.1-0.6,1.8-1.7c0.7-1.2,1.3-2.6,2-4.2s1.1-3.4,1.4-5.1c0-0.1,0.2-0.2,0.4-0.3c0.2,0,0.4,0,0.5,0.1
		s0.3,0.2,0.2,0.4c-0.4,2.4-0.9,4.5-1.7,6.5c-0.8,2-1.6,3.6-2.6,4.8c-1,1.2-1.9,1.8-2.8,1.8c-0.7,0-1.3-0.3-1.8-0.9
		c-0.5-0.6-0.9-1.3-1.3-2.2s-0.6-1.9-0.8-3c-0.2-1-0.3-2.1-0.4-3.1c-0.3,0.6-0.6,1.3-1,1.9c-0.4,0.7-0.9,1.2-1.4,1.7
		c-0.5,0.5-1.1,0.7-1.8,0.7C347.8,220.1,346.8,219.7,346,218.9z M351,216.9c0.7-0.9,1.3-2.3,2-4.1c0-0.2,0-0.5,0-0.8
		c0-0.3,0-0.6,0.1-1c0-0.5,0.1-0.9,0.1-1.2c-0.2-0.9-0.5-1.6-1-2.2c-0.5-0.6-1-0.8-1.6-0.8c-0.6,0-1.1,0.5-1.6,1.4
		c-0.5,1.1-0.8,2.4-0.9,4c-0.1,1.6,0,2.9,0.2,4.2c0.2,1.2,0.5,1.8,0.9,1.8C349.8,218.3,350.4,217.8,351,216.9z"/>
</g>
<g>
	<defs>
		<rect id="SVGID_3_" x="-432" y="-210" width="1280" height="720"/>
	</defs>
	<clipPath id="SVGID_4_">
		<use xlink:href="#SVGID_3_"  style="overflow:visible;"/>
	</clipPath>
	<path class="st2" d="M33.1,203.2c65.8-50.7,116.6-63,156-51.1c23.7,7.1,24.1,17.2,51.1,25.1c59.9,17.5,93.3-21.8,155.1-17.9
		c23.4,1.5,57.4,9.6,97.7,42.1"/>
</g>
</svg>
