<?xml version="1.0" encoding="utf-8"?>
<!-- Generator: Adobe Illustrator 19.0.0, SVG Export Plug-In . SVG Version: 6.00 Build 0)  -->
<svg version="1.1" id="Camada_1" xmlns="http://www.w3.org/2000/svg" xmlns:xlink="http://www.w3.org/1999/xlink" x="0px" y="0px"
	 viewBox="29 37 670.5 720" style="enable-background:new 29 37 670.5 720;" xml:space="preserve">
<style type="text/css">
	.st0{clip-path:url(#SVGID_48_);fill:#FCFCFC;stroke:#DEBEDC;stroke-width:5;stroke-miterlimit:10;}
	.st1{fill:#90378C;}
	.st2{fill:none;stroke:#90388C;stroke-width:4;stroke-miterlimit:10;}
	.st3{fill:none;stroke:#010202;stroke-miterlimit:10;}
	.st4{fill:none;stroke:#191918;stroke-miterlimit:10;}
</style>
<g>
	<g>
		<defs>
			<rect id="SVGID_1_" x="-340.1" y="37" width="1280" height="720"/>
		</defs>
		<clipPath id="SVGID_2_">
			<use xlink:href="#SVGID_1_"  style="overflow:visible;"/>
		</clipPath>
	</g>
	<g>
		<defs>
			<rect id="SVGID_3_" x="-340.1" y="37" width="1280" height="720"/>
		</defs>
		<clipPath id="SVGID_4_">
			<use xlink:href="#SVGID_3_"  style="overflow:visible;"/>
		</clipPath>
	</g>
	<g>
		<defs>
			<rect id="SVGID_5_" x="-340.1" y="37" width="1280" height="720"/>
		</defs>
		<clipPath id="SVGID_6_">
			<use xlink:href="#SVGID_5_"  style="overflow:visible;"/>
		</clipPath>
	</g>
	<g>
		<defs>
			<rect id="SVGID_7_" x="-340.1" y="37" width="1280" height="720"/>
		</defs>
		<clipPath id="SVGID_8_">
			<use xlink:href="#SVGID_7_"  style="overflow:visible;"/>
		</clipPath>
	</g>
	<g>
		<defs>
			<rect id="SVGID_9_" x="-340.1" y="37" width="1280" height="720"/>
		</defs>
		<clipPath id="SVGID_10_">
			<use xlink:href="#SVGID_9_"  style="overflow:visible;"/>
		</clipPath>
	</g>
	<g>
		<defs>
			<rect id="SVGID_11_" x="-340.1" y="37" width="1280" height="720"/>
		</defs>
		<clipPath id="SVGID_12_">
			<use xlink:href="#SVGID_11_"  style="overflow:visible;"/>
		</clipPath>
	</g>
	<g>
		<defs>
			<rect id="SVGID_13_" x="-340.1" y="37" width="1280" height="720"/>
		</defs>
		<clipPath id="SVGID_14_">
			<use xlink:href="#SVGID_13_"  style="overflow:visible;"/>
		</clipPath>
	</g>
	<g>
		<defs>
			<rect id="SVGID_15_" x="-340.1" y="37" width="1280" height="720"/>
		</defs>
		<clipPath id="SVGID_16_">
			<use xlink:href="#SVGID_15_"  style="overflow:visible;"/>
		</clipPath>
	</g>
	<g>
		<defs>
			<rect id="SVGID_17_" x="-340.1" y="37" width="1280" height="720"/>
		</defs>
		<clipPath id="SVGID_18_">
			<use xlink:href="#SVGID_17_"  style="overflow:visible;"/>
		</clipPath>
	</g>
	<g>
		<defs>
			<rect id="SVGID_19_" x="-340.1" y="37" width="1280" height="720"/>
		</defs>
		<clipPath id="SVGID_20_">
			<use xlink:href="#SVGID_19_"  style="overflow:visible;"/>
		</clipPath>
	</g>
</g>
<g>
	<g>
		<defs>
			<rect id="SVGID_21_" x="-340.1" y="37" width="1280" height="720"/>
		</defs>
		<clipPath id="SVGID_22_">
			<use xlink:href="#SVGID_21_"  style="overflow:visible;"/>
		</clipPath>
	</g>
	<g>
		<defs>
			<rect id="SVGID_23_" x="-340.1" y="37" width="1280" height="720"/>
		</defs>
		<clipPath id="SVGID_24_">
			<use xlink:href="#SVGID_23_"  style="overflow:visible;"/>
		</clipPath>
	</g>
	<g>
		<defs>
			<rect id="SVGID_25_" x="-340.1" y="37" width="1280" height="720"/>
		</defs>
		<clipPath id="SVGID_26_">
			<use xlink:href="#SVGID_25_"  style="overflow:visible;"/>
		</clipPath>
	</g>
	<g>
		<defs>
			<rect id="SVGID_27_" x="-340.1" y="37" width="1280" height="720"/>
		</defs>
		<clipPath id="SVGID_28_">
			<use xlink:href="#SVGID_27_"  style="overflow:visible;"/>
		</clipPath>
	</g>
	<g>
		<defs>
			<rect id="SVGID_29_" x="-340.1" y="37" width="1280" height="720"/>
		</defs>
		<clipPath id="SVGID_30_">
			<use xlink:href="#SVGID_29_"  style="overflow:visible;"/>
		</clipPath>
	</g>
	<g>
		<defs>
			<rect id="SVGID_31_" x="-340.1" y="37" width="1280" height="720"/>
		</defs>
		<clipPath id="SVGID_32_">
			<use xlink:href="#SVGID_31_"  style="overflow:visible;"/>
		</clipPath>
	</g>
	<g>
		<defs>
			<rect id="SVGID_33_" x="-340.1" y="37" width="1280" height="720"/>
		</defs>
		<clipPath id="SVGID_34_">
			<use xlink:href="#SVGID_33_"  style="overflow:visible;"/>
		</clipPath>
	</g>
	<g>
		<defs>
			<rect id="SVGID_35_" x="-340.1" y="37" width="1280" height="720"/>
		</defs>
		<clipPath id="SVGID_36_">
			<use xlink:href="#SVGID_35_"  style="overflow:visible;"/>
		</clipPath>
	</g>
	<g>
		<defs>
			<rect id="SVGID_37_" x="-340.1" y="37" width="1280" height="720"/>
		</defs>
		<clipPath id="SVGID_38_">
			<use xlink:href="#SVGID_37_"  style="overflow:visible;"/>
		</clipPath>
	</g>
	<g>
		<defs>
			<rect id="SVGID_39_" x="-340.1" y="37" width="1280" height="720"/>
		</defs>
		<clipPath id="SVGID_40_">
			<use xlink:href="#SVGID_39_"  style="overflow:visible;"/>
		</clipPath>
	</g>
	<g>
		<defs>
			<rect id="SVGID_41_" x="-340.1" y="37" width="1280" height="720"/>
		</defs>
		<clipPath id="SVGID_42_">
			<use xlink:href="#SVGID_41_"  style="overflow:visible;"/>
		</clipPath>
	</g>
	<g>
		<defs>
			<rect id="SVGID_43_" x="-340.1" y="37" width="1280" height="720"/>
		</defs>
		<clipPath id="SVGID_44_">
			<use xlink:href="#SVGID_43_"  style="overflow:visible;"/>
		</clipPath>
	</g>
	<g>
		<defs>
			<rect id="SVGID_45_" x="-340.1" y="37" width="1280" height="720"/>
		</defs>
		<clipPath id="SVGID_46_">
			<use xlink:href="#SVGID_45_"  style="overflow:visible;"/>
		</clipPath>
	</g>
	<g>
		<defs>
			<rect id="SVGID_47_" x="-340.1" y="37" width="1280" height="720"/>
		</defs>
		<clipPath id="SVGID_48_">
			<use xlink:href="#SVGID_47_"  style="overflow:visible;"/>
		</clipPath>
		<circle class="st0" cx="362.4" cy="397" r="291.8"/>
	</g>
</g>
<path class="st1" d="M190.1,378.9c-3.8,7.7-14.3,12.4-25.1,7.2c-3.8-1.8-7.3-4.8-10-8.7c0.1,2.5,0.3,5,0.5,7.5
	c0.2,2.2-5.7,3.5-6.1-0.2c-2.4-19.5-3.1-38.6-2.9-54.1c-10.1-11.3-9.2-35.3,2.7-48.1c13.9-14.9,38.8-8.3,44.9,14.2
	c5.2,19.5-4.1,41.6-24.9,52C188.7,346.4,197.8,363.1,190.1,378.9 M146.5,326.4c0.2-10.5,1-19.1,1.9-24.7c1.3-7.5,10.2-1.7,9.4,3.8
	l0,0c-2.4,12.2-3.6,28-3.7,45.8c11.2-4.3,35.8-25.8,31-52.6c-3.6-19.3-19.3-28.5-33.5-13.8C141.5,295.6,139.8,315.4,146.5,326.4
	 M154.1,354.2c0,5.3,0.2,10.7,0.4,16.3c2.6,5.8,6.9,10.7,11.6,12.5c6.9,2.6,13.6-2.3,15.9-9.2C188.9,353.8,174.3,347.3,154.1,354.2"
	/>
<path class="st1" d="M242.2,352.1c-1.7,3.8-3.8,7.9-6.2,11.4c-9.6,14-21.9,14.3-27.7,8.4c-5.2-5.2-6.1-16.3-4-23.5
	c5-17.9,26.1-14.3,24.3-4.7c-1,5.9-9.1,8.1-15.2,8.5c-0.6,4-0.8,11.6,0.7,15.6c3,8.3,13.3,2,19.4-6.1c2.4-3.2,4.6-7.1,6.3-10.7
	C240.4,350,242.7,351,242.2,352.1 M213.9,349.6c4.7-0.4,11.5-2.1,12.2-6.3C227.1,337.7,217.3,334.9,213.9,349.6"/>
<path class="st1" d="M266.7,365.6c-2.3,4.3-4.7,7.8-7.3,10.6c-2.6,2.8-5,4.2-7.3,4.2c-2.2,0-4.1-1.2-5.8-3.7
	c-1.6-2.5-2.9-5.9-3.9-10c-1-4.2-1.7-8.9-2.1-14.1c-0.3-5.2-0.4-10.7,0-16.3c0.3-5.6,1-11.1,2-16.5s2.4-10.2,4.1-14.6
	c1.7-4.4,3.8-8,6.3-10.7c3.1-3.2,5.9-4.5,8.4-3.8s4.2,3.2,4.9,7.3c0.5,3.3,0.2,7.1-0.9,11.2c-1.1,4.2-2.8,8.4-5.2,12.3
	c-2.4,4-5.4,7.3-8.8,9.9c0,0.2,0,0.5-0.1,1c-0.1,1.7-0.3,4.2-0.5,7.6c-0.2,3.5-0.5,7.2-0.7,11.4c-0.2,4.2-0.3,8.2-0.2,12
	c0,3.8,0.2,7,0.7,9.6c0.4,2.5,1.1,3.8,2.1,3.8c2,0,4.8-2.4,8.4-7.3c3.6-4.8,6.4-10.7,8.5-17.7c0-0.6,0-1.2,0-1.7
	c-0.1-5.5,0.3-11.1,1.2-16.7c0.8-5.6,2.2-10.9,4-15.7c1.8-4.8,4.2-8.9,7.1-12.1c3.1-3.2,5.9-4.5,8.4-3.8s4.2,3.2,4.9,7.3
	c0.5,3.3,0.2,7.1-0.9,11.2c-1.1,4.2-2.8,8.4-5.2,12.3c-2.4,4-5.4,7.3-8.8,9.9c0,0.3,0,0.8-0.1,1.3c-0.1,1.5-0.3,3.6-0.5,6.3
	c-0.2,2.6-0.3,5.5-0.4,8.5s-0.1,6,0,8.7s0.4,5,0.8,6.8c0.4,1.8,1.2,2.7,2.1,2.7c2,0,4.8-2.4,8.4-7.3c3.6-4.8,6.5-10.9,8.6-18
	c0.1-0.4,0.4-0.6,0.9-0.6c0.4,0,0.8,0,1.2,0.3c0.3,0.2,0.5,0.5,0.4,1c-1.2,4.8-2.8,9.3-5,13.5c-2.3,4.3-4.7,7.8-7.3,10.6
	c-2.6,2.8-5,4.2-7.3,4.2c-2.6,0-4.8-1.4-6.6-4.2c-1.8-2.8-3.2-6.5-4.2-11c-0.5-2-0.8-4.2-1.1-6.4
	C268.8,361.1,267.8,363.4,266.7,365.6 M253.3,312.4c-1,6.2-1.6,11.4-2,15.5c4.4-4,7.6-8.9,9.8-14.7c2.1-5.8,2.9-10.7,2.4-14.9
	c-0.2-1.7-0.7-3-1.4-4c-0.7-1-1.5-1.3-2.4-1c-1,0.3-1.9,1.7-2.9,4C255.4,301.1,254.2,306.1,253.3,312.4 M282,323.5
	c-1,6.2-1.6,11.4-2,15.5c4.4-4,7.6-8.9,9.8-14.7c2.1-5.8,2.9-10.7,2.4-14.9c-0.2-1.7-0.7-3-1.4-4c-0.7-1-1.5-1.3-2.4-1
	c-1,0.3-1.9,1.7-2.9,4C284,312.2,282.9,317.2,282,323.5"/>
<path class="st1" d="M302.5,367.7c-1.8-1.8-3.1-4-3.9-6.7c-0.9-2.7-1.2-5.6-1.1-8.6s0.8-5.8,2-8.4s2.9-4.6,5.2-6.1
	c2.4-1.4,4.9-1.8,7.6-1.3s5.1,2.1,7,4.6c0-0.7,0.1-1.4,0.1-2V339c0.1-1.4,0.8-2.4,1.8-2.7c1-0.3,2.2-0.3,3.5,0.1s2.4,1,3.3,1.8
	s1.2,1.5,1.1,2.2c-0.2,0.9-0.4,2.7-0.7,5.3c-0.2,2.6-0.5,5.7-0.6,9.1s-0.2,6.8-0.1,10c0,3.3,0.2,6,0.7,8.2c0.4,2.2,1.1,3.3,2,3.3
	c1.2,0,2.5-1.3,4.1-4c1.6-2.6,3.1-5.9,4.5-9.7c1.4-3.8,2.4-7.7,3.3-11.7c0.1-0.3,0.4-0.5,0.8-0.6c0.4,0,0.8,0,1.2,0.2
	c0.4,0.2,0.6,0.5,0.5,0.8c-0.9,5.4-2.2,10.3-3.9,14.8c-1.8,4.5-3.7,8.2-6,10.9c-2.2,2.8-4.4,4.2-6.4,4.2c-1.6,0-2.9-0.7-4-2
	c-1.2-1.3-2.1-3-2.9-5c-0.8-2.1-1.3-4.3-1.8-6.8c-0.4-2.4-0.7-4.8-0.9-7.1c-0.7,1.4-1.4,2.9-2.4,4.4c-0.9,1.5-2,2.8-3.2,3.8
	c-1.2,1.1-2.5,1.6-4,1.6C306.5,370.3,304.3,369.5,302.5,367.7 M313.9,363c1.5-2.2,3-5.3,4.7-9.3c0-0.4,0-1.1,0.1-1.8
	c0-0.7,0.1-1.4,0.1-2.2c0.1-1.2,0.1-2.1,0.2-2.7c-0.5-2-1.2-3.6-2.3-4.9c-1.1-1.3-2.3-1.9-3.6-1.8c-1.3,0.1-2.5,1.2-3.6,3.1
	c-1.2,2.5-1.9,5.6-2.1,9.1c-0.2,3.6,0,6.7,0.5,9.6c0.5,2.8,1.2,4.2,2.2,4.2C311.2,366.3,312.4,365.2,313.9,363"/>
<path class="st1" d="M442.6,324.9c0.3,7.6,0.1,15.6-0.4,23.7c-0.6,8.1-1.3,15.8-2.1,23.2c-0.8,7.4-1.3,13.8-1.6,19.1
	c-0.3,5.3,0,8.8,1,10.6c0.4,0.6,0.5,1.1,0.2,1.4c-0.2,0.3-0.5,0.6-1,0.6c-0.4,0-0.7,0-1-0.1c-2.9-2.3-4.8-6.6-5.7-13.1
	c-0.9-6.5-1.2-14-0.9-22.7c0.3-8.7,0.8-17.5,1.4-26.4c0.5-7.2,0.9-13.8,1.2-19.9c0.2-6.1,0.2-11.1-0.2-15.1
	c-0.7-5.1-1.9-8.4-3.7-9.8c-1.8-1.4-3.8-1.1-6.1,0.8c-2.3,1.9-4.3,5.3-6.3,10c-2.4,6.2-4.2,13.5-5.5,22s-2.2,17-2.7,25.6
	s-0.8,16.3-0.9,22.9c-0.1,1.8-0.7,2.9-1.8,3.4c-1.1,0.5-2.2,0.5-3.3,0.1c-1.1-0.4-1.8-1.2-2-2.2c-0.9-7.6-1.4-14.9-1.6-21.9
	s-0.3-13.6-0.4-20c0-5.4-0.1-10.6-0.2-15.5s-0.5-9.6-1.1-14c-0.9-7.2-2.4-11.4-4.5-12.4c-2.2-1-4.9,1.8-8.3,8.3
	c-3.2,6.7-6.1,15.1-8.5,25.3c-2.4,10.2-4.4,20.2-5.7,30c-1.4,9.8-2,17.6-2,23.2c0,1.8-0.8,3-2.1,3.5c-1.3,0.6-2.7,0.7-4.2,0.4
	c-1.4-0.3-2.4-1-2.7-1.9c-2.5-8.8-4.3-18-5.1-27.8c-0.9-9.7-0.8-18.9,0.3-27.4c1.1-8.4,3.2-15.1,6.3-20.1c1.8-2.5,3.6-4.1,5.5-4.6
	c1.9-0.4,3.6,0.1,4.9,1.7c1.4,1.6,2.2,4.2,2.4,7.7c0.2,4.5-0.5,9.4-2.1,14.6s-3.9,9.7-6.9,13.4c0,1.4,0.1,2.9,0.2,4.4
	c0.3,7.2,0.6,14.1,0.6,20.8c0.7-6.2,1.9-13.2,3.4-21.2c1.5-7.9,3.4-15.7,5.6-23.5c2.2-7.7,4.7-14.3,7.4-19.8c3.1-5.7,6-8.9,8.9-9.6
	c2.8-0.7,5.4,0.3,7.7,2.9c2.3,2.6,4.1,6,5.6,10.3c1.2,3.5,2.1,7.2,2.7,11s1,7.6,1.2,11.3c0.6-3.6,1.4-7.3,2.4-11.2
	c1-3.8,2.1-7.5,3.5-10.9c2.6-6.1,5.6-10,8.7-11.8s6.1-1.7,9,0.1c2.8,1.9,5.1,5.3,6.9,10.3C441.1,310.6,442.2,317.3,442.6,324.9
	 M364.8,322.7c0,4.9,0.1,9.5,0.3,13.9c0,0.3,0,0.6,0,0.9c2.2-3.5,3.9-7.3,5.1-11.7c1.2-4.4,1.7-8.4,1.5-12c-0.3-3.6-1.2-5.9-2.5-6.8
	s-2.5,0.4-3.6,3.8C365.1,313.8,364.8,317.8,364.8,322.7"/>
<path class="st1" d="M488.6,352.2c-4.6,4.1-8.9,5.5-15.3,6.5c-1.1,8.4-5.8,18.7-13.8,18.7c-9.5,0-12.3-12.7-10.8-24.2
	c0.3-1.4,0.2-2.3,3.2-1.4c-5.2-8.4,0.9-16.2,9.6-16.2c8.9,0,12.9,9.8,12.1,20.4c5.5-0.9,9.1-2.1,13.1-5.4
	C488,348.9,490.3,350.7,488.6,352.2 M454.4,351c3.5,4.8,10,5.9,15.8,5.5c1-8.8-1.2-17.8-8.9-18.3C454.8,337.8,449.5,344.3,454.4,351
	 M469.9,359.1c-3.8,0.2-8.9-0.3-12.2-2.1c-2.5,7.8-0.4,16,2.7,16.5C463.3,374,468.3,368.3,469.9,359.1"/>
<path class="st1" d="M523,352c-1.7,7.6-6,20.6-11.5,26.3c-4.8,4.8-13.5,4.3-15.6-5.3c-0.9-4.2-0.3-8.5,0.7-12.7
	c1.7-7.2,2.9-6-2.8-5.8c-9.2,0.5-13-4.5-12-10c1.2-7.5,9.4-8.3,10-2.1c0.3,3-1.2,6.6-2.7,9.3c1.4,0.3,3,0.4,4.6,0.3
	c4.9-0.3,11.7-3.5,12.1,9.1c0.1,2.6-0.2,5.4-0.8,11c-0.2,2.5-1.2,8.4,3.9,3.6c5.2-4.8,9.7-17.4,11.6-24.2
	C520.8,350.4,523.2,350.9,523,352 M486.7,350.6c1.2-2.2,2.7-5.6,2.5-8c-0.3-3.3-4.2-2-4.9,2.3C483.9,347.5,484.9,349.6,486.7,350.6"
	/>
<path class="st1" d="M525.4,367.7c-1.8-1.8-3.1-4-3.9-6.7c-0.9-2.7-1.2-5.6-1.1-8.6c0.1-3,0.8-5.8,2-8.4s2.9-4.6,5.2-6.1
	c2.4-1.4,4.9-1.8,7.6-1.3s5.1,2.1,7,4.6c0-0.7,0.1-1.4,0.1-2V339c0.1-1.4,0.8-2.4,1.8-2.7c1-0.3,2.2-0.3,3.5,0.1s2.4,1,3.3,1.8
	s1.2,1.5,1.1,2.2c-0.2,0.9-0.4,2.7-0.7,5.3c-0.2,2.6-0.5,5.7-0.6,9.1s-0.2,6.8-0.1,10c0,3.3,0.2,6,0.7,8.2c0.4,2.2,1.1,3.3,2,3.3
	c1.2,0,2.5-1.3,4.1-4c1.6-2.6,3.1-5.9,4.5-9.7c1.4-3.8,2.4-7.7,3.3-11.7c0.1-0.3,0.4-0.5,0.8-0.6c0.4,0,0.8,0,1.2,0.2
	s0.6,0.5,0.5,0.8c-0.9,5.4-2.2,10.3-3.9,14.8c-1.8,4.5-3.7,8.2-6,10.9c-2.2,2.8-4.4,4.2-6.4,4.2c-1.6,0-2.9-0.7-4-2
	c-1.2-1.3-2.1-3-2.9-5c-0.8-2.1-1.3-4.3-1.8-6.8c-0.4-2.4-0.7-4.8-0.9-7.1c-0.7,1.4-1.4,2.9-2.4,4.4c-0.9,1.5-2,2.8-3.2,3.8
	c-1.2,1.1-2.5,1.6-4,1.6C529.4,370.3,527.1,369.5,525.4,367.7 M536.8,363c1.5-2.2,3-5.3,4.7-9.3c0-0.4,0-1.1,0.1-1.8
	c0-0.7,0.1-1.4,0.1-2.2c0.1-1.2,0.1-2.1,0.2-2.7c-0.5-2-1.2-3.6-2.3-4.9s-2.3-1.9-3.6-1.8s-2.5,1.2-3.6,3.1
	c-1.2,2.5-1.9,5.6-2.1,9.1c-0.2,3.6,0,6.7,0.5,9.6c0.5,2.8,1.2,4.2,2.2,4.2C534,366.3,535.3,365.2,536.8,363"/>
<path class="st1" d="M601.8,352.1c-1.7,3.8-3.8,7.9-6.2,11.4c-9.6,14-21.9,14.3-27.7,8.4c-5.2-5.2-6.1-16.3-4-23.5
	c5-17.9,26.1-14.3,24.3-4.7c-1,5.9-9.1,8.1-15.2,8.5c-0.6,4-0.8,11.6,0.7,15.6c3,8.3,13.3,2,19.4-6.1c2.4-3.2,4.6-7.1,6.3-10.7
	C600,350,602.3,351,601.8,352.1 M573.5,349.6c4.7-0.4,11.5-2.1,12.2-6.3C586.7,337.7,576.9,334.9,573.5,349.6"/>
<path class="st1" d="M621.8,352.5c-5.8,1.5-12,4.8-16.9,8.3c0,0.1,0.1,0.1,0.1,0.2c5.2,7.9,10.1,19.3,4.2,26.6
	c-9.3,11.5-31.4,3.3-20.1-15.3c1.8-2.9,4-5.4,6.5-7.8c-4.6-7.4-7.2-17.6-3.5-24.6c4.1-7.7,14.8-7.7,12.3,2.4
	c-0.8,3.1-2.6,6.5-4.8,8.7c0.8,2.1,1.8,4.2,3.6,7.2c6.6-4.5,13-7.2,17.9-8.3C623.6,349.4,624.1,351.9,621.8,352.5 M604.2,384.5
	c1.5-5.7-4.7-14.1-6.8-17.3c-2.1,2.1-3.9,4.3-5.4,6.8C582.8,389.8,601.7,393.1,604.2,384.5 M598.8,348.1c1.5-2,2.6-4.5,3.2-6.5
	c1.7-6.7-3.6-5.5-4,0.3C597.8,344,598.3,346.2,598.8,348.1"/>
<g>
	<path class="st1" d="M304.2,446.5c-0.5,10.5-4.7,22.4-12.3,22.4c-13.7,0.2-11.9-50.2,4-49c9.8,0.8,7.2,25.4-0.9,23.6
		c-4.6-1-4.1-10.2-0.9-12.7c1.1-0.9,2.1,0.1,1.2,0.6c-3,1.7-3.6,10.9,0.3,11c6.3,0.1,7.5-20.8,0.2-21c-10.8-0.2-10.1,45.2-3.1,45.4
		c2.1,0.1,9.7-5.7,10.5-20.5C303.1,445.7,304.2,445.5,304.2,446.5z"/>
	<path class="st1" d="M326.5,452.9c-2,1.8-3.9,2.4-6.7,2.8c-0.5,3.7-2.5,8.2-6,8.2c-4.1,0-5.4-5.6-4.7-10.6c0.1-0.6,0.1-1,1.4-0.6
		c-2.3-3.7,0.4-7.1,4.2-7.1c3.9,0,5.6,4.3,5.3,8.9c2.4-0.4,4-0.9,5.7-2.4C326.2,451.4,327.3,452.2,326.5,452.9z M311.6,452.3
		c1.5,2.1,4.4,2.6,6.9,2.4c0.4-3.9-0.5-7.8-3.9-8C311.7,446.6,309.4,449.4,311.6,452.3z M318.3,455.9c-1.7,0.1-3.9-0.1-5.4-0.9
		c-1.1,3.4-0.2,7,1.2,7.2C315.5,462.4,317.6,459.9,318.3,455.9z"/>
	<path class="st1" d="M349.4,452.8c-0.6,3.5-2.3,9.1-4.9,11.5c-2.1,1.9-4.7,1.2-5.9-1.8c-1.6-3.9-0.4-9-1.6-12.9
		c-1-2.7-2.4-1.9-3.7,0.7c-1.7,3.1-2.6,8.3-3.4,12.3c-0.1,0.6-2.8,0.8-2.9,0.1c-0.5-3.3-1-8.4-1.3-11.4c0-1.7,4.3-0.7,4.3,0.1
		c-0.3,2.5-0.7,5-0.9,7.8c0.7-3,1.7-6.8,3.2-9.4c2.2-3.7,5.6-3.9,7.8-1.6c3.1,3.2,1.9,10,1.7,13.8c-0.1,2,0.2,2.6,1.8,1.4
		c2.4-1.9,4.2-7.4,4.8-10.5C348.4,452.1,349.5,452.3,349.4,452.8z"/>
	<path class="st1" d="M363,452.9c-2.1,3.4-5,6.4-8.3,8.3c0.4,1.3,0.4,2.7-0.2,3.8c-1.3,2.6-4.4,2.2-6.2-1.8
		c-3.6-0.4-4.4-3.9-1.3-5.4c-0.2-2.3-0.1-6.4,0.1-8.2c1.9-14.7,11.7-16.6,11.2-8.9c-0.3,3.8-2.8,8.1-7,10.4
		c-0.1,1.2-0.4,4.7-0.4,6.5c1.6,0.4,2.8,1.4,3.4,2.6c3-1.8,5.8-4.7,7.7-7.9C362.4,451.7,363.4,452.2,363,452.9z M347.8,462
		c-0.3-0.8-0.5-1.8-0.7-2.9C345.7,459.9,345.9,461.4,347.8,462z M350.9,461.7c0.7-0.2,1.4-0.5,2.1-0.8c-0.4-0.8-1.2-1.6-2.2-2
		C350.8,459.8,350.8,460.8,350.9,461.7z M353.4,462c-0.8,0.4-1.5,0.7-2.4,0.9c0.3,2.1,1,3.5,2.1,1.5
		C353.5,463.7,353.6,462.8,353.4,462z M351.4,449.7c3.4-2.2,5.5-6,5.7-9.1C357.4,436.3,353.5,434.1,351.4,449.7z"/>
	<path class="st1" d="M379.1,452.8c-0.7,1.7-1.7,3.5-2.7,5c-4.2,6.1-9.6,6.2-12.1,3.7c-2.3-2.3-2.7-7.1-1.8-10.3
		c2.2-7.8,11.4-6.3,10.6-2.1c-0.4,2.6-4,3.5-6.6,3.7c-0.3,1.8-0.3,5.1,0.3,6.8c1.3,3.6,5.8,0.9,8.5-2.7c1-1.4,2-3.1,2.8-4.7
		C378.3,451.9,379.4,452.3,379.1,452.8z M366.8,451.7c2-0.2,5-0.9,5.3-2.8C372.5,446.5,368.2,445.3,366.8,451.7z"/>
	<path class="st1" d="M391.1,452.7c-0.9,4.3-3.6,13.9-7.7,13.9c-5,0-5.1-10.9-5-15.5c0-2.5,4.3-0.8,4.2,0.4
		c-0.3,3.3-0.5,13.2,1.2,13.2c1.9,0,4.7-6.2,6.2-12.3C390.2,452,391.3,452.2,391.1,452.7z M380.8,445.8c-1.1,0-1.9,0.7-1.9,1.6
		s0.9,1.6,1.9,1.6s1.9-0.7,1.9-1.6C382.7,446.6,381.8,445.8,380.8,445.8z"/>
	<path class="st1" d="M401.3,452.5c-0.5,3-2.7,11.9-6.5,11.8c-6.6-0.1-5.3-20.8-4.8-30.4c-1.2,0-2.4,0-3.8,0c-0.7,0-0.7-1.6,0-1.7
		c1.4,0,2.8,0.1,3.9,0.1c0.2-3.1,0.5-5.3,0.7-5.8c0.5-1.5,4.3-0.3,4,2.4c-0.1,1.2-0.3,2.5-0.4,3.7c1.7,0.1,3.1,0.2,4.4,0.3
		c0.4,0,0.4,1.1,0,1.1c-1.3,0-2.8,0-4.5-0.1c-1,12.7-0.5,28.4,0.9,28.4c1.6,0,4.1-4.7,5.1-10.1C400.3,451.9,401.4,452.1,401.3,452.5
		z"/>
	<path class="st1" d="M402.1,459.6c-0.8-0.8-1.4-1.7-1.7-2.9c-0.4-1.2-0.5-2.4-0.5-3.8c0.1-1.3,0.3-2.5,0.9-3.7s1.3-2,2.3-2.7
		c1-0.6,2.1-0.8,3.3-0.6s2.2,0.9,3.1,2c0-0.3,0-0.6,0.1-0.9v-0.1c0.1-0.6,0.3-1,0.8-1.2s0.9-0.1,1.5,0.1s1,0.4,1.4,0.8
		c0.4,0.3,0.5,0.7,0.5,1c-0.1,0.4-0.2,1.2-0.3,2.3c-0.1,1.2-0.2,2.5-0.3,4s-0.1,3-0.1,4.4s0.1,2.6,0.3,3.6c0.2,0.9,0.5,1.4,0.9,1.4
		c0.5,0,1.1-0.6,1.8-1.7c0.7-1.2,1.3-2.6,2-4.2s1.1-3.4,1.4-5.1c0-0.1,0.2-0.2,0.4-0.3c0.2,0,0.4,0,0.5,0.1s0.3,0.2,0.2,0.4
		c-0.4,2.4-0.9,4.5-1.7,6.5c-0.8,2-1.6,3.6-2.6,4.8c-1,1.2-1.9,1.8-2.8,1.8c-0.7,0-1.3-0.3-1.8-0.9s-0.9-1.3-1.3-2.2s-0.6-1.9-0.8-3
		c-0.2-1-0.3-2.1-0.4-3.1c-0.3,0.6-0.6,1.3-1,1.9c-0.4,0.7-0.9,1.2-1.4,1.7s-1.1,0.7-1.8,0.7C403.8,460.8,402.8,460.4,402.1,459.6z
		 M407.1,457.6c0.7-0.9,1.3-2.3,2-4.1c0-0.2,0-0.5,0-0.8s0-0.6,0.1-1c0-0.5,0.1-0.9,0.1-1.2c-0.2-0.9-0.5-1.6-1-2.2s-1-0.8-1.6-0.8
		s-1.1,0.5-1.6,1.4c-0.5,1.1-0.8,2.4-0.9,4s0,2.9,0.2,4.2c0.2,1.2,0.5,1.8,0.9,1.8C405.9,459,406.4,458.5,407.1,457.6z"/>
	<path class="st1" d="M434.8,452.8c-0.8,3.3-2.6,9-5,11.5c-2.1,2.1-5.9,1.9-6.8-2.3c-0.4-1.8-0.1-3.7,0.3-5.6
		c0.8-3.2,1.3-2.6-1.2-2.5c-4,0.2-5.7-2-5.3-4.4c0.5-3.3,4.1-3.6,4.4-0.9c0.1,1.3-0.5,2.9-1.2,4.1c0.6,0.1,1.3,0.2,2,0.1
		c2.2-0.1,5.1-1.5,5.3,4c0,1.1-0.1,2.4-0.3,4.8c-0.1,1.1-0.5,3.7,1.7,1.6c2.3-2.1,4.3-7.6,5.1-10.6C433.9,452,435,452.3,434.8,452.8
		z M419,452.2c0.5-1,1.2-2.4,1.1-3.5c-0.1-1.4-1.8-0.9-2.1,1C417.7,450.8,418.2,451.7,419,452.2z"/>
	<path class="st1" d="M446.7,452.7c-0.9,4.3-3.6,13.9-7.7,13.9c-5,0-5.1-10.9-5-15.5c0-2.5,4.3-0.8,4.2,0.4
		c-0.3,3.3-0.5,13.2,1.2,13.2c1.9,0,4.7-6.2,6.2-12.3C445.7,452,446.8,452.2,446.7,452.7z M436.3,445.8c-1.1,0-1.9,0.7-1.9,1.6
		s0.9,1.6,1.9,1.6s1.9-0.7,1.9-1.6C438.2,446.6,437.4,445.8,436.3,445.8z"/>
	<path class="st1" d="M447.4,459.6c-0.8-0.8-1.4-1.7-1.7-2.9c-0.4-1.2-0.5-2.4-0.5-3.8c0.1-1.3,0.3-2.5,0.9-3.7s1.3-2,2.3-2.7
		c1-0.6,2.1-0.8,3.3-0.6s2.2,0.9,3.1,2c0-0.3,0-0.6,0.1-0.9v-0.1c0.1-0.6,0.3-1,0.8-1.2s0.9-0.1,1.5,0.1s1,0.4,1.4,0.8
		c0.4,0.3,0.5,0.7,0.5,1c-0.1,0.4-0.2,1.2-0.3,2.3c-0.1,1.2-0.2,2.5-0.3,4s-0.1,3-0.1,4.4s0.1,2.6,0.3,3.6c0.2,0.9,0.5,1.4,0.9,1.4
		c0.5,0,1.1-0.6,1.8-1.7c0.7-1.2,1.3-2.6,2-4.2s1.1-3.4,1.4-5.1c0-0.1,0.2-0.2,0.4-0.3c0.2,0,0.4,0,0.5,0.1s0.3,0.2,0.2,0.4
		c-0.4,2.4-0.9,4.5-1.7,6.5c-0.8,2-1.6,3.6-2.6,4.8c-1,1.2-1.9,1.8-2.8,1.8c-0.7,0-1.3-0.3-1.8-0.9s-0.9-1.3-1.3-2.2s-0.6-1.9-0.8-3
		c-0.2-1-0.3-2.1-0.4-3.1c-0.3,0.6-0.6,1.3-1,1.9c-0.4,0.7-0.9,1.2-1.4,1.7s-1.1,0.7-1.8,0.7C449.2,460.8,448.2,460.4,447.4,459.6z
		 M452.4,457.6c0.7-0.9,1.3-2.3,2-4.1c0-0.2,0-0.5,0-0.8s0-0.6,0.1-1c0-0.5,0.1-0.9,0.1-1.2c-0.2-0.9-0.5-1.6-1-2.2s-1-0.8-1.6-0.8
		s-1.1,0.5-1.6,1.4c-0.5,1.1-0.8,2.4-0.9,4s0,2.9,0.2,4.2c0.2,1.2,0.5,1.8,0.9,1.8C451.2,459,451.8,458.5,452.4,457.6z"/>
</g>
<path class="st2" d="M134.5,443.9c65.8-50.7,116.6-63,156-51.1c23.7,7.1,24.1,17.2,51.1,25.1c59.9,17.5,93.3-21.8,155.1-17.9
	c23.4,1.5,57.4,9.6,97.7,42.1"/>
<path class="st3" d="M365.8,583.8l-1.1,1.7c0,0-0.7,2.4,2.4,2.2c0,0,0.6-0.6,1.7-2.5l-1.8-1.6L365.8,583.8z"/>
<path class="st3" d="M369.2,584.5l7.6-9c0,0,1.2,0.5,1.6-0.5c0,0,0.1,0.9,0.7-2.1l11.2-14.2l-2.2-2.1l-9.8,11.9l-2.5,2.8
	c0,0-2.3-0.2-1.5,2.3l-7.2,9.4L369.2,584.5z"/>
<path class="st3" d="M393.9,560.5c0,0-7.2-4.1-8.5-6.6l5.6-7.2l8.8,6.8L393.9,560.5z"/>
<path class="st3" d="M431.8,504.4c-7.3,9.9-14.9,19.4-22.7,28.9c-3,3.7-6.1,7.3-8.9,11.1c-0.9,1.2-3.4,5.6-5.2,4.9
	c4.9-6.9,9.9-13.7,14.8-20.6c4.8-3.2,5.7-11,11.1-14.2"/>
<path class="st3" d="M390.8,545.8c0.9,0.5,1.8,1.1,2.7,1.7c2.1-5.2,4.3-10.3,6.5-15.4c1.8-4.2,3.2-8.6,5.3-12.7
	c3.5-7,9.3-13.1,16.7-15.7c4.4-1.6,9-1.8,9.4,4.2c0.6-0.1,1.8-1.1,0.9-1.6c-0.5,1-0.5,1-1,1.8c1.9,0.2,2.5,2.7,2.7,3.9
	c-0.2,8.3-1.8,15.6-9.1,20.3c-9.7,5.2-18.4,12.1-27.4,18.7c0.7-0.7,1.5-1.4,2.5-1.7c-0.3,0.9-1.4,2-2.5,1.7
	c11.9-11.3,26.8-20.8,34.3-36c-1.7,1.7-4,3.6-5.2,5.7c2-1.2,4-3.7,5.2-5.7c-11.7,11.9-22.3,24.9-35.5,35.1c1.6-1.6,3.3-3.8,5.3-4.9
	c-0.8,1.6-3.4,4.8-5.3,4.9c13.3-14,26.1-28.7,36-45.4"/>
<path class="st3" d="M398.7,551.6c11.7-7,24.3-13.4,34.2-23.7c4.8-4.2,6-10.8,4-17.3c-1.5-4.1-3.9-6.8-6.9-8.7
	c-7.1-3.6-16.3-2.3-21.1,5c-6,10.8-9.1,23.4-12.8,35.6c-0.7,2.7-2.2,4.9-5.3,3.8"/>
<path class="st4" d="M361.2,585.9l1.3,1.5c0,0,2.1,1.3,2.7-1.6c0,0-0.4-0.8-1.9-2.2l-2,1.3L361.2,585.9z"/>
<path class="st4" d="M362.8,582.9l-6.4-9.5c0,0,0.7-1,0-1.6c0,0,0.9,0.1-1.8-1.2l-10.3-14.3l-2.5,1.5l8.6,12.3l2,3.1
	c0,0-0.8,2.1,1.8,2l6.9,9.2L362.8,582.9z"/>
<path class="st4" d="M346.8,553.4c0,0-5.7,5.7-8.5,6.2l-5.3-7.2l8.7-6.4L346.8,553.4z"/>
<path class="st4" d="M304.2,503.1c7.3,9.4,14.2,19.1,21.1,28.9c2.6,3.8,5.2,7.7,8,11.3c0.9,1.1,4.3,4.7,3.2,6.2l-15.4-19.3
	c-1.8-5.4-8.8-8.3-10.4-14.1"/>
<path class="st4" d="M332.2,552.4c0.8-0.7,1.5-1.4,2.3-2.1c-4.3-3.3-8.5-6.7-12.7-10.2c-3.4-2.8-7.2-5.3-10.5-8.3
	c-5.6-5.1-9.8-12.2-10.3-19.9c-0.3-4.6,0.7-8.9,6.4-7.7c0.1-0.5-0.6-2-1.3-1.2c0.8,0.8,0.8,0.8,1.4,1.4c0.7-1.8,3.1-1.6,4.3-1.5
	c7.7,2.4,14.1,5.8,16.6,13.9c2.3,10.5,6.5,20.4,10.3,30.7c-0.4-0.9-0.9-1.8-0.9-2.8c0.8,0.5,1.5,1.9,0.9,2.8
	c-7.4-14.2-12.4-30.6-24.7-41.6c1.2,2.1,2.3,4.6,4,6.4c-0.5-2.2-2.4-4.7-4-6.4c8.1,14.1,17.5,27.5,23.6,42.6
	c-1.1-1.9-2.7-4.1-3.2-6.2c1.3,1.2,3.6,4.5,3.2,6.2c-9.6-16.2-20-32-33-45.7"/>
<path class="st4" d="M339.7,546.6c-3.5-12.8-6.2-26.3-13.2-38.3c-2.6-5.6-8.5-8.5-15.2-8.3c-4.3,0.3-7.4,1.9-10,4.2
	c-5.2,5.7-6.5,14.7-0.9,21.1c8.5,8.5,19.6,14.7,30,21.4c2.3,1.4,4,3.3,2.2,5.9"/>
</svg>
