<?xml version="1.0" encoding="utf-8"?>
<!-- Generator: Adobe Illustrator 19.0.0, SVG Export Plug-In . SVG Version: 6.00 Build 0)  -->
<svg version="1.1" id="Camada_1" xmlns="http://www.w3.org/2000/svg" xmlns:xlink="http://www.w3.org/1999/xlink" x="0px" y="0px"
	 viewBox="0 0 670.5 720" style="enable-background:new 0 0 670.5 720;" xml:space="preserve">
<style type="text/css">
	.st0{clip-path:url(#SVGID_2_);fill:#90378C;}
	.st1{fill:#90378C;}
	.st2{clip-path:url(#SVGID_4_);fill:none;stroke:#90388C;stroke-width:4;stroke-miterlimit:10;}
	.st3{clip-path:url(#SVGID_4_);fill:none;stroke:#010202;stroke-miterlimit:10;}
	.st4{clip-path:url(#SVGID_4_);fill:none;stroke:#191918;stroke-miterlimit:10;}
	.st5{clip-path:url(#SVGID_4_);fill:none;stroke:#DEBEDC;stroke-width:5;stroke-miterlimit:10;}
</style>
<g>
	<defs>
		<rect id="SVGID_1_" x="-369.1" width="1280" height="720"/>
	</defs>
	<clipPath id="SVGID_2_">
		<use xlink:href="#SVGID_1_"  style="overflow:visible;"/>
	</clipPath>
	<path class="st0" d="M151.6,348.2c-3.8,7.7-14.3,12.4-25.1,7.2c-3.8-1.8-7.3-4.8-10-8.7c0.1,2.5,0.3,5,0.5,7.5
		c0.2,2.2-5.7,3.5-6.1-0.2c-2.4-19.5-3.1-38.6-2.9-54.1c-10.1-11.3-9.2-35.3,2.7-48.1c13.9-14.9,38.8-8.3,44.9,14.2
		c5.2,19.5-4.1,41.6-24.9,52C150.2,315.7,159.3,332.4,151.6,348.2 M108,295.7c0.2-10.5,1-19.1,1.9-24.7c1.3-7.5,10.2-1.7,9.4,3.8v0
		c-2.4,12.2-3.6,28-3.7,45.8c11.2-4.3,35.8-25.8,31-52.6c-3.6-19.3-19.3-28.5-33.5-13.8C103,264.9,101.3,284.7,108,295.7
		 M115.6,323.5c0,5.3,0.2,10.7,0.4,16.3c2.6,5.8,6.9,10.7,11.6,12.5c6.9,2.6,13.6-2.3,15.9-9.2C150.4,323.1,135.8,316.6,115.6,323.5
		"/>
	<path class="st0" d="M203.7,321.4c-1.7,3.8-3.8,7.9-6.2,11.4c-9.6,14-21.9,14.3-27.7,8.4c-5.2-5.2-6.1-16.3-4-23.5
		c5-17.9,26.1-14.3,24.3-4.7c-1,5.9-9.1,8.1-15.2,8.5c-0.6,4-0.8,11.6,0.7,15.6c3,8.3,13.3,2,19.4-6.1c2.4-3.2,4.6-7.1,6.3-10.7
		C201.9,319.3,204.2,320.3,203.7,321.4 M175.4,318.9c4.7-0.4,11.5-2.1,12.2-6.3C188.6,307,178.8,304.2,175.4,318.9"/>
	<path class="st0" d="M228.2,334.9c-2.3,4.3-4.7,7.8-7.3,10.6c-2.6,2.8-5,4.2-7.3,4.2c-2.2,0-4.1-1.2-5.8-3.7
		c-1.6-2.5-2.9-5.9-3.9-10c-1-4.2-1.7-8.9-2.1-14.1c-0.3-5.2-0.4-10.7,0-16.3c0.3-5.6,1-11.1,2-16.5s2.4-10.2,4.1-14.6
		c1.7-4.4,3.8-8,6.3-10.7c3.1-3.2,5.9-4.5,8.4-3.8c2.5,0.7,4.2,3.2,4.9,7.3c0.5,3.3,0.2,7.1-0.9,11.2c-1.1,4.2-2.8,8.4-5.2,12.3
		c-2.4,4-5.4,7.3-8.8,9.9c0,0.2,0,0.5-0.1,1c-0.1,1.7-0.3,4.2-0.5,7.6c-0.2,3.5-0.5,7.2-0.7,11.4c-0.2,4.2-0.3,8.2-0.2,12
		c0,3.8,0.2,7,0.7,9.6c0.4,2.5,1.1,3.8,2.1,3.8c2,0,4.8-2.4,8.4-7.3c3.6-4.8,6.4-10.7,8.5-17.7c0-0.6,0-1.2,0-1.7
		c-0.1-5.5,0.3-11.1,1.2-16.7c0.8-5.6,2.2-10.9,4-15.7c1.8-4.8,4.2-8.9,7.1-12.1c3.1-3.2,5.9-4.5,8.4-3.8c2.5,0.7,4.2,3.2,4.9,7.3
		c0.5,3.3,0.2,7.1-0.9,11.2c-1.1,4.2-2.8,8.4-5.2,12.3c-2.4,4-5.4,7.3-8.8,9.9c0,0.3,0,0.8-0.1,1.3c-0.1,1.5-0.3,3.6-0.5,6.3
		c-0.2,2.6-0.3,5.5-0.4,8.5c-0.1,3-0.1,6,0,8.7c0.1,2.7,0.4,5,0.8,6.8c0.4,1.8,1.2,2.7,2.1,2.7c2,0,4.8-2.4,8.4-7.3
		c3.6-4.8,6.5-10.9,8.6-18c0.1-0.4,0.4-0.6,0.9-0.6c0.4,0,0.8,0,1.2,0.3c0.3,0.2,0.5,0.5,0.4,1c-1.2,4.8-2.8,9.3-5,13.5
		c-2.3,4.3-4.7,7.8-7.3,10.6c-2.6,2.8-5,4.2-7.3,4.2c-2.6,0-4.8-1.4-6.6-4.2c-1.8-2.8-3.2-6.5-4.2-11c-0.5-2-0.8-4.2-1.1-6.4
		C230.3,330.4,229.3,332.7,228.2,334.9 M214.8,281.7c-1,6.2-1.6,11.4-2,15.5c4.4-4,7.6-8.9,9.8-14.7c2.1-5.8,2.9-10.7,2.4-14.9
		c-0.2-1.7-0.7-3-1.4-4c-0.7-1-1.5-1.3-2.4-1c-1,0.3-1.9,1.7-2.9,4C216.9,270.4,215.7,275.4,214.8,281.7 M243.5,292.8
		c-1,6.2-1.6,11.4-2,15.5c4.4-4,7.6-8.9,9.8-14.7c2.1-5.8,2.9-10.7,2.4-14.9c-0.2-1.7-0.7-3-1.4-4c-0.7-1-1.5-1.3-2.4-1
		c-1,0.3-1.9,1.7-2.9,4C245.5,281.5,244.4,286.5,243.5,292.8"/>
	<path class="st0" d="M264,337c-1.8-1.8-3.1-4-3.9-6.7c-0.9-2.7-1.2-5.6-1.1-8.6c0.1-3,0.8-5.8,2-8.4c1.2-2.6,2.9-4.6,5.2-6.1
		c2.4-1.4,4.9-1.8,7.6-1.3c2.7,0.5,5.1,2.1,7,4.6c0-0.7,0.1-1.4,0.1-2v-0.2c0.1-1.4,0.8-2.4,1.8-2.7c1-0.3,2.2-0.3,3.5,0.1
		c1.3,0.4,2.4,1,3.3,1.8c0.9,0.8,1.2,1.5,1.1,2.2c-0.2,0.9-0.4,2.7-0.7,5.3c-0.2,2.6-0.5,5.7-0.6,9.1c-0.1,3.4-0.2,6.8-0.1,10
		c0,3.3,0.2,6,0.7,8.2c0.4,2.2,1.1,3.3,2,3.3c1.2,0,2.5-1.3,4.1-4c1.6-2.6,3.1-5.9,4.5-9.7c1.4-3.8,2.4-7.7,3.3-11.7
		c0.1-0.3,0.4-0.5,0.8-0.6c0.4,0,0.8,0,1.2,0.2c0.4,0.2,0.6,0.5,0.5,0.8c-0.9,5.4-2.2,10.3-3.9,14.8c-1.8,4.5-3.7,8.2-6,10.9
		c-2.2,2.8-4.4,4.2-6.4,4.2c-1.6,0-2.9-0.7-4-2c-1.2-1.3-2.1-3-2.9-5c-0.8-2.1-1.3-4.3-1.8-6.8c-0.4-2.4-0.7-4.8-0.9-7.1
		c-0.7,1.4-1.4,2.9-2.4,4.4c-0.9,1.5-2,2.8-3.2,3.8c-1.2,1.1-2.5,1.6-4,1.6C268,339.6,265.8,338.8,264,337 M275.4,332.3
		c1.5-2.2,3-5.3,4.7-9.3c0-0.4,0-1.1,0.1-1.8c0-0.7,0.1-1.4,0.1-2.2c0.1-1.2,0.1-2.1,0.2-2.7c-0.5-2-1.2-3.6-2.3-4.9
		c-1.1-1.3-2.3-1.9-3.6-1.8c-1.3,0.1-2.5,1.2-3.6,3.1c-1.2,2.5-1.9,5.6-2.1,9.1c-0.2,3.6,0,6.7,0.5,9.6c0.5,2.8,1.2,4.2,2.2,4.2
		C272.7,335.6,273.9,334.5,275.4,332.3"/>
	<path class="st0" d="M404.1,294.2c0.3,7.6,0.1,15.6-0.4,23.7c-0.6,8.1-1.3,15.8-2.1,23.2c-0.8,7.4-1.3,13.8-1.6,19.1
		c-0.3,5.3,0,8.8,1,10.6c0.4,0.6,0.5,1.1,0.2,1.4c-0.2,0.3-0.5,0.6-1,0.6c-0.4,0-0.7,0-1-0.1c-2.9-2.3-4.8-6.6-5.7-13.1
		c-0.9-6.5-1.2-14-0.9-22.7c0.3-8.7,0.8-17.5,1.4-26.4c0.5-7.2,0.9-13.8,1.2-19.9c0.2-6.1,0.2-11.1-0.2-15.1
		c-0.7-5.1-1.9-8.4-3.7-9.8c-1.8-1.4-3.8-1.1-6.1,0.8c-2.3,1.9-4.3,5.3-6.3,10c-2.4,6.2-4.2,13.5-5.5,22c-1.3,8.5-2.2,17-2.7,25.6
		c-0.5,8.6-0.8,16.3-0.9,22.9c-0.1,1.8-0.7,2.9-1.8,3.4c-1.1,0.5-2.2,0.5-3.3,0.1c-1.1-0.4-1.8-1.2-2-2.2
		c-0.9-7.6-1.4-14.9-1.6-21.9c-0.2-7-0.3-13.6-0.4-20c0-5.4-0.1-10.6-0.2-15.5c-0.1-4.9-0.5-9.6-1.1-14c-0.9-7.2-2.4-11.4-4.5-12.4
		c-2.2-1-4.9,1.8-8.3,8.3c-3.2,6.7-6.1,15.1-8.5,25.3c-2.4,10.2-4.4,20.2-5.7,30c-1.4,9.8-2,17.6-2,23.2c0,1.8-0.8,3-2.1,3.5
		c-1.3,0.6-2.7,0.7-4.2,0.4c-1.4-0.3-2.4-1-2.7-1.9c-2.5-8.8-4.3-18-5.1-27.8c-0.9-9.7-0.8-18.9,0.3-27.4c1.1-8.4,3.2-15.1,6.3-20.1
		c1.8-2.5,3.6-4.1,5.5-4.6c1.9-0.4,3.6,0.1,4.9,1.7c1.4,1.6,2.2,4.2,2.4,7.7c0.2,4.5-0.5,9.4-2.1,14.6c-1.6,5.2-3.9,9.7-6.9,13.4
		c0,1.4,0.1,2.9,0.2,4.4c0.3,7.2,0.6,14.1,0.6,20.8c0.7-6.2,1.9-13.2,3.4-21.2c1.5-7.9,3.4-15.7,5.6-23.5c2.2-7.7,4.7-14.3,7.4-19.8
		c3.1-5.7,6-8.9,8.9-9.6c2.8-0.7,5.4,0.3,7.7,2.9c2.3,2.6,4.1,6,5.6,10.3c1.2,3.5,2.1,7.2,2.7,11c0.6,3.8,1,7.6,1.2,11.3
		c0.6-3.6,1.4-7.3,2.4-11.2c1-3.8,2.1-7.5,3.5-10.9c2.6-6.1,5.6-10,8.7-11.8c3.1-1.8,6.1-1.7,9,0.1c2.8,1.9,5.1,5.3,6.9,10.3
		C402.6,279.9,403.7,286.6,404.1,294.2 M326.3,292c0,4.9,0.1,9.5,0.3,13.9c0,0.3,0,0.6,0,0.9c2.2-3.5,3.9-7.3,5.1-11.7
		c1.2-4.4,1.7-8.4,1.5-12c-0.3-3.6-1.2-5.9-2.5-6.8c-1.3-0.9-2.5,0.4-3.6,3.8C326.6,283.1,326.3,287.1,326.3,292"/>
	<path class="st0" d="M450.1,321.5c-4.6,4.1-8.9,5.5-15.3,6.5c-1.1,8.4-5.8,18.7-13.8,18.7c-9.5,0-12.3-12.7-10.8-24.2
		c0.3-1.4,0.2-2.3,3.2-1.4c-5.2-8.4,0.9-16.2,9.6-16.2c8.9,0,12.9,9.8,12.1,20.4c5.5-0.9,9.1-2.1,13.1-5.4
		C449.5,318.2,451.8,320,450.1,321.5 M415.9,320.3c3.5,4.8,10,5.9,15.8,5.5c1-8.8-1.2-17.8-8.9-18.3
		C416.3,307.1,411,313.6,415.9,320.3 M431.4,328.4c-3.8,0.2-8.9-0.3-12.2-2.1c-2.5,7.8-0.4,16,2.7,16.5
		C424.8,343.3,429.8,337.6,431.4,328.4"/>
	<path class="st0" d="M484.5,321.3c-1.7,7.6-6,20.6-11.5,26.3c-4.8,4.8-13.5,4.3-15.6-5.3c-0.9-4.2-0.3-8.5,0.7-12.7
		c1.7-7.2,2.9-6-2.8-5.8c-9.2,0.5-13-4.5-12-10c1.2-7.5,9.4-8.3,10-2.1c0.3,3-1.2,6.6-2.7,9.3c1.4,0.3,3,0.4,4.6,0.3
		c4.9-0.3,11.7-3.5,12.1,9.1c0.1,2.6-0.2,5.4-0.8,11c-0.2,2.5-1.2,8.4,3.9,3.6c5.2-4.8,9.7-17.4,11.6-24.2
		C482.3,319.7,484.7,320.2,484.5,321.3 M448.2,319.9c1.2-2.2,2.7-5.6,2.5-8c-0.3-3.3-4.2-2-4.9,2.3
		C445.4,316.8,446.4,318.9,448.2,319.9"/>
	<path class="st0" d="M486.9,337c-1.8-1.8-3.1-4-3.9-6.7c-0.9-2.7-1.2-5.6-1.1-8.6c0.1-3,0.8-5.8,2-8.4c1.2-2.6,2.9-4.6,5.2-6.1
		c2.4-1.4,4.9-1.8,7.6-1.3c2.7,0.5,5.1,2.1,7,4.6c0-0.7,0.1-1.4,0.1-2v-0.2c0.1-1.4,0.8-2.4,1.8-2.7c1-0.3,2.2-0.3,3.5,0.1
		c1.3,0.4,2.4,1,3.3,1.8c0.9,0.8,1.2,1.5,1.1,2.2c-0.2,0.9-0.4,2.7-0.7,5.3c-0.2,2.6-0.5,5.7-0.6,9.1c-0.1,3.4-0.2,6.8-0.1,10
		c0,3.3,0.2,6,0.7,8.2c0.4,2.2,1.1,3.3,2,3.3c1.2,0,2.5-1.3,4.1-4c1.6-2.6,3.1-5.9,4.5-9.7c1.4-3.8,2.4-7.7,3.3-11.7
		c0.1-0.3,0.4-0.5,0.8-0.6c0.4,0,0.8,0,1.2,0.2c0.4,0.2,0.6,0.5,0.5,0.8c-0.9,5.4-2.2,10.3-3.9,14.8c-1.8,4.5-3.7,8.2-6,10.9
		c-2.2,2.8-4.4,4.2-6.4,4.2c-1.6,0-2.9-0.7-4-2c-1.2-1.3-2.1-3-2.9-5c-0.8-2.1-1.3-4.3-1.8-6.8c-0.4-2.4-0.7-4.8-0.9-7.1
		c-0.7,1.4-1.4,2.9-2.4,4.4c-0.9,1.5-2,2.8-3.2,3.8c-1.2,1.1-2.5,1.6-4,1.6C490.9,339.6,488.6,338.8,486.9,337 M498.3,332.3
		c1.5-2.2,3-5.3,4.7-9.3c0-0.4,0-1.1,0.1-1.8c0-0.7,0.1-1.4,0.1-2.2c0.1-1.2,0.1-2.1,0.2-2.7c-0.5-2-1.2-3.6-2.3-4.9
		c-1.1-1.3-2.3-1.9-3.6-1.8c-1.3,0.1-2.5,1.2-3.6,3.1c-1.2,2.5-1.9,5.6-2.1,9.1c-0.2,3.6,0,6.7,0.5,9.6c0.5,2.8,1.2,4.2,2.2,4.2
		C495.5,335.6,496.8,334.5,498.3,332.3"/>
	<path class="st0" d="M563.3,321.4c-1.7,3.8-3.8,7.9-6.2,11.4c-9.6,14-21.9,14.3-27.7,8.4c-5.2-5.2-6.1-16.3-4-23.5
		c5-17.9,26.1-14.3,24.3-4.7c-1,5.9-9.1,8.1-15.2,8.5c-0.6,4-0.8,11.6,0.7,15.6c3,8.3,13.3,2,19.4-6.1c2.4-3.2,4.6-7.1,6.3-10.7
		C561.5,319.3,563.8,320.3,563.3,321.4 M535,318.9c4.7-0.4,11.5-2.1,12.2-6.3C548.2,307,538.4,304.2,535,318.9"/>
	<path class="st0" d="M583.3,321.8c-5.8,1.5-12,4.8-16.9,8.3c0,0.1,0.1,0.1,0.1,0.2c5.2,7.9,10.1,19.3,4.2,26.6
		c-9.3,11.5-31.4,3.3-20.1-15.3c1.8-2.9,4-5.4,6.5-7.8c-4.6-7.4-7.2-17.6-3.5-24.6c4.1-7.7,14.8-7.7,12.3,2.4
		c-0.8,3.1-2.6,6.5-4.8,8.7c0.8,2.1,1.8,4.2,3.6,7.2c6.6-4.5,13-7.2,17.9-8.3C585.1,318.7,585.6,321.2,583.3,321.8 M565.7,353.8
		c1.5-5.7-4.7-14.1-6.8-17.3c-2.1,2.1-3.9,4.3-5.4,6.8C544.3,359.1,563.2,362.4,565.7,353.8 M560.3,317.4c1.5-2,2.6-4.5,3.2-6.5
		c1.7-6.7-3.6-5.5-4,0.3C559.3,313.3,559.8,315.5,560.3,317.4"/>
</g>
<g>
	<path class="st1" d="M265.7,415.8c-0.5,10.5-4.7,22.4-12.3,22.4c-13.7,0.2-11.9-50.2,4-49c9.8,0.8,7.2,25.4-0.9,23.6
		c-4.6-1-4.1-10.2-0.9-12.7c1.1-0.9,2.1,0.1,1.2,0.6c-3,1.7-3.6,10.9,0.3,11c6.3,0.1,7.5-20.8,0.2-21c-10.8-0.2-10.1,45.2-3.1,45.4
		c2.1,0.1,9.7-5.7,10.5-20.5C264.6,415,265.7,414.8,265.7,415.8z"/>
	<path class="st1" d="M288,422.2c-2,1.8-3.9,2.4-6.7,2.8c-0.5,3.7-2.5,8.2-6,8.2c-4.1,0-5.4-5.6-4.7-10.6c0.1-0.6,0.1-1,1.4-0.6
		c-2.3-3.7,0.4-7.1,4.2-7.1c3.9,0,5.6,4.3,5.3,8.9c2.4-0.4,4-0.9,5.7-2.4C287.7,420.7,288.8,421.5,288,422.2z M273.1,421.6
		c1.5,2.1,4.4,2.6,6.9,2.4c0.4-3.9-0.5-7.8-3.9-8C273.2,415.9,270.9,418.7,273.1,421.6z M279.8,425.2c-1.7,0.1-3.9-0.1-5.4-0.9
		c-1.1,3.4-0.2,7,1.2,7.2C277,431.7,279.1,429.2,279.8,425.2z"/>
	<path class="st1" d="M310.9,422.1c-0.6,3.5-2.3,9.1-4.9,11.5c-2.1,1.9-4.7,1.2-5.9-1.8c-1.6-3.9-0.4-9-1.6-12.9
		c-1-2.7-2.4-1.9-3.7,0.7c-1.7,3.1-2.6,8.3-3.4,12.3c-0.1,0.6-2.8,0.8-2.9,0.1c-0.5-3.3-1-8.4-1.3-11.4c0-1.7,4.3-0.7,4.3,0.1
		c-0.3,2.5-0.7,5-0.9,7.8c0.7-3,1.7-6.8,3.2-9.4c2.2-3.7,5.6-3.9,7.8-1.6c3.1,3.2,1.9,10,1.7,13.8c-0.1,2,0.2,2.6,1.8,1.4
		c2.4-1.9,4.2-7.4,4.8-10.5C309.9,421.4,311,421.6,310.9,422.1z"/>
	<path class="st1" d="M324.5,422.2c-2.1,3.4-5,6.4-8.3,8.3c0.4,1.3,0.4,2.7-0.2,3.8c-1.3,2.6-4.4,2.2-6.2-1.8
		c-3.6-0.4-4.4-3.9-1.3-5.4c-0.2-2.3-0.1-6.4,0.1-8.2c1.9-14.7,11.7-16.6,11.2-8.9c-0.3,3.8-2.8,8.1-7,10.4
		c-0.1,1.2-0.4,4.7-0.4,6.5c1.6,0.4,2.8,1.4,3.4,2.6c3-1.8,5.8-4.7,7.7-7.9C323.9,421,324.9,421.5,324.5,422.2z M309.3,431.3
		c-0.3-0.8-0.5-1.8-0.7-2.9C307.2,429.2,307.4,430.7,309.3,431.3z M312.4,431c0.7-0.2,1.4-0.5,2.1-0.8c-0.4-0.8-1.2-1.6-2.2-2
		C312.3,429.1,312.3,430.1,312.4,431z M314.9,431.3c-0.8,0.4-1.5,0.7-2.4,0.9c0.3,2.1,1,3.5,2.1,1.5
		C315,433,315.1,432.1,314.9,431.3z M312.9,419c3.4-2.2,5.5-6,5.7-9.1C318.9,405.6,315,403.4,312.9,419z"/>
	<path class="st1" d="M340.6,422.1c-0.7,1.7-1.7,3.5-2.7,5c-4.2,6.1-9.6,6.2-12.1,3.7c-2.3-2.3-2.7-7.1-1.8-10.3
		c2.2-7.8,11.4-6.3,10.6-2.1c-0.4,2.6-4,3.5-6.6,3.7c-0.3,1.8-0.3,5.1,0.3,6.8c1.3,3.6,5.8,0.9,8.5-2.7c1-1.4,2-3.1,2.8-4.7
		C339.8,421.2,340.9,421.6,340.6,422.1z M328.3,421c2-0.2,5-0.9,5.3-2.8C334,415.8,329.7,414.6,328.3,421z"/>
	<path class="st1" d="M352.6,422c-0.9,4.3-3.6,13.9-7.7,13.9c-5,0-5.1-10.9-5-15.5c0-2.5,4.3-0.8,4.2,0.4
		c-0.3,3.3-0.5,13.2,1.2,13.2c1.9,0,4.7-6.2,6.2-12.3C351.7,421.3,352.8,421.5,352.6,422z M342.3,415.1c-1.1,0-1.9,0.7-1.9,1.6
		c0,0.9,0.9,1.6,1.9,1.6c1,0,1.9-0.7,1.9-1.6C344.2,415.9,343.3,415.1,342.3,415.1z"/>
	<path class="st1" d="M362.8,421.8c-0.5,3-2.7,11.9-6.5,11.8c-6.6-0.1-5.3-20.8-4.8-30.4c-1.2,0-2.4,0-3.8,0c-0.7,0-0.7-1.6,0-1.7
		c1.4,0,2.8,0.1,3.9,0.1c0.2-3.1,0.5-5.3,0.7-5.8c0.5-1.5,4.3-0.3,4,2.4c-0.1,1.2-0.3,2.5-0.4,3.7c1.7,0.1,3.1,0.2,4.4,0.3
		c0.4,0,0.4,1.1,0,1.1c-1.3,0-2.8,0-4.5-0.1c-1,12.7-0.5,28.4,0.9,28.4c1.6,0,4.1-4.7,5.1-10.1C361.8,421.2,362.9,421.4,362.8,421.8
		z"/>
	<path class="st1" d="M363.6,428.9c-0.8-0.8-1.4-1.7-1.7-2.9c-0.4-1.2-0.5-2.4-0.5-3.8c0.1-1.3,0.3-2.5,0.9-3.7s1.3-2,2.3-2.7
		c1-0.6,2.1-0.8,3.3-0.6s2.2,0.9,3.1,2c0-0.3,0-0.6,0.1-0.9v-0.1c0.1-0.6,0.3-1,0.8-1.2s0.9-0.1,1.5,0.1c0.6,0.2,1,0.4,1.4,0.8
		c0.4,0.3,0.5,0.7,0.5,1c-0.1,0.4-0.2,1.2-0.3,2.3c-0.1,1.2-0.2,2.5-0.3,4s-0.1,3-0.1,4.4c0,1.4,0.1,2.6,0.3,3.6
		c0.2,0.9,0.5,1.4,0.9,1.4c0.5,0,1.1-0.6,1.8-1.7c0.7-1.2,1.3-2.6,2-4.2s1.1-3.4,1.4-5.1c0-0.1,0.2-0.2,0.4-0.3c0.2,0,0.4,0,0.5,0.1
		s0.3,0.2,0.2,0.4c-0.4,2.4-0.9,4.5-1.7,6.5c-0.8,2-1.6,3.6-2.6,4.8c-1,1.2-1.9,1.8-2.8,1.8c-0.7,0-1.3-0.3-1.8-0.9
		c-0.5-0.6-0.9-1.3-1.3-2.2s-0.6-1.9-0.8-3c-0.2-1-0.3-2.1-0.4-3.1c-0.3,0.6-0.6,1.3-1,1.9c-0.4,0.7-0.9,1.2-1.4,1.7
		c-0.5,0.5-1.1,0.7-1.8,0.7C365.3,430.1,364.3,429.7,363.6,428.9z M368.6,426.9c0.7-0.9,1.3-2.3,2-4.1c0-0.2,0-0.5,0-0.8
		c0-0.3,0-0.6,0.1-1c0-0.5,0.1-0.9,0.1-1.2c-0.2-0.9-0.5-1.6-1-2.2c-0.5-0.6-1-0.8-1.6-0.8c-0.6,0-1.1,0.5-1.6,1.4
		c-0.5,1.1-0.8,2.4-0.9,4c-0.1,1.6,0,2.9,0.2,4.2c0.2,1.2,0.5,1.8,0.9,1.8C367.4,428.3,367.9,427.8,368.6,426.9z"/>
	<path class="st1" d="M396.3,422.1c-0.8,3.3-2.6,9-5,11.5c-2.1,2.1-5.9,1.9-6.8-2.3c-0.4-1.8-0.1-3.7,0.3-5.6
		c0.8-3.2,1.3-2.6-1.2-2.5c-4,0.2-5.7-2-5.3-4.4c0.5-3.3,4.1-3.6,4.4-0.9c0.1,1.3-0.5,2.9-1.2,4.1c0.6,0.1,1.3,0.2,2,0.1
		c2.2-0.1,5.1-1.5,5.3,4c0,1.1-0.1,2.4-0.3,4.8c-0.1,1.1-0.5,3.7,1.7,1.6c2.3-2.1,4.3-7.6,5.1-10.6
		C395.4,421.3,396.5,421.6,396.3,422.1z M380.5,421.5c0.5-1,1.2-2.4,1.1-3.5c-0.1-1.4-1.8-0.9-2.1,1
		C379.2,420.1,379.7,421,380.5,421.5z"/>
	<path class="st1" d="M408.2,422c-0.9,4.3-3.6,13.9-7.7,13.9c-5,0-5.1-10.9-5-15.5c0-2.5,4.3-0.8,4.2,0.4
		c-0.3,3.3-0.5,13.2,1.2,13.2c1.9,0,4.7-6.2,6.2-12.3C407.2,421.3,408.3,421.5,408.2,422z M397.8,415.1c-1.1,0-1.9,0.7-1.9,1.6
		c0,0.9,0.9,1.6,1.9,1.6c1,0,1.9-0.7,1.9-1.6C399.7,415.9,398.9,415.1,397.8,415.1z"/>
	<path class="st1" d="M408.9,428.9c-0.8-0.8-1.4-1.7-1.7-2.9c-0.4-1.2-0.5-2.4-0.5-3.8c0.1-1.3,0.3-2.5,0.9-3.7s1.3-2,2.3-2.7
		c1-0.6,2.1-0.8,3.3-0.6s2.2,0.9,3.1,2c0-0.3,0-0.6,0.1-0.9v-0.1c0.1-0.6,0.3-1,0.8-1.2s0.9-0.1,1.5,0.1c0.6,0.2,1,0.4,1.4,0.8
		c0.4,0.3,0.5,0.7,0.5,1c-0.1,0.4-0.2,1.2-0.3,2.3c-0.1,1.2-0.2,2.5-0.3,4s-0.1,3-0.1,4.4c0,1.4,0.1,2.6,0.3,3.6
		c0.2,0.9,0.5,1.4,0.9,1.4c0.5,0,1.1-0.6,1.8-1.7c0.7-1.2,1.3-2.6,2-4.2s1.1-3.4,1.4-5.1c0-0.1,0.2-0.2,0.4-0.3c0.2,0,0.4,0,0.5,0.1
		s0.3,0.2,0.2,0.4c-0.4,2.4-0.9,4.5-1.7,6.5c-0.8,2-1.6,3.6-2.6,4.8c-1,1.2-1.9,1.8-2.8,1.8c-0.7,0-1.3-0.3-1.8-0.9
		c-0.5-0.6-0.9-1.3-1.3-2.2s-0.6-1.9-0.8-3c-0.2-1-0.3-2.1-0.4-3.1c-0.3,0.6-0.6,1.3-1,1.9c-0.4,0.7-0.9,1.2-1.4,1.7
		c-0.5,0.5-1.1,0.7-1.8,0.7C410.7,430.1,409.7,429.7,408.9,428.9z M413.9,426.9c0.7-0.9,1.3-2.3,2-4.1c0-0.2,0-0.5,0-0.8
		c0-0.3,0-0.6,0.1-1c0-0.5,0.1-0.9,0.1-1.2c-0.2-0.9-0.5-1.6-1-2.2c-0.5-0.6-1-0.8-1.6-0.8c-0.6,0-1.1,0.5-1.6,1.4
		c-0.5,1.1-0.8,2.4-0.9,4c-0.1,1.6,0,2.9,0.2,4.2c0.2,1.2,0.5,1.8,0.9,1.8C412.7,428.3,413.3,427.8,413.9,426.9z"/>
</g>
<g>
	<defs>
		<rect id="SVGID_3_" x="-369.1" width="1280" height="720"/>
	</defs>
	<clipPath id="SVGID_4_">
		<use xlink:href="#SVGID_3_"  style="overflow:visible;"/>
	</clipPath>
	<path class="st2" d="M96,413.2c65.8-50.7,116.6-63,156-51.1c23.7,7.1,24.1,17.2,51.1,25.1c59.9,17.5,93.3-21.8,155.1-17.9
		c23.4,1.5,57.4,9.6,97.7,42.1"/>
	<path class="st3" d="M327.3,553.1l-1.1,1.7c0,0-0.7,2.4,2.4,2.2c0,0,0.6-0.6,1.7-2.5l-1.8-1.6L327.3,553.1z"/>
	<path class="st3" d="M330.7,553.8l7.6-9c0,0,1.2,0.5,1.6-0.5c0,0,0.1,0.9,0.7-2.1l11.2-14.2l-2.2-2.1l-9.8,11.9l-2.5,2.8
		c0,0-2.3-0.2-1.5,2.3l-7.2,9.4L330.7,553.8z"/>
	<path class="st3" d="M355.4,529.8c0,0-7.2-4.1-8.5-6.6l5.6-7.2l8.8,6.8L355.4,529.8z"/>
	<path class="st3" d="M393.3,473.7c-7.3,9.9-14.9,19.4-22.7,28.9c-3,3.7-6.1,7.3-8.9,11.1c-0.9,1.2-3.4,5.6-5.2,4.9
		c4.9-6.9,9.9-13.7,14.8-20.6c4.8-3.2,5.7-11,11.1-14.2"/>
	<path class="st3" d="M352.3,515.1c0.9,0.5,1.8,1.1,2.7,1.7c2.1-5.2,4.3-10.3,6.5-15.4c1.8-4.2,3.2-8.6,5.3-12.7
		c3.5-7,9.3-13.1,16.7-15.7c4.4-1.6,9-1.8,9.4,4.2c0.6-0.1,1.8-1.1,0.9-1.6c-0.5,1-0.5,1-1,1.8c1.9,0.2,2.5,2.7,2.7,3.9
		c-0.2,8.3-1.8,15.6-9.1,20.3c-9.7,5.2-18.4,12.1-27.4,18.7c0.7-0.7,1.5-1.4,2.5-1.7c-0.3,0.9-1.4,2-2.5,1.7
		c11.9-11.3,26.8-20.8,34.3-36c-1.7,1.7-4,3.6-5.2,5.7c2-1.2,4-3.7,5.2-5.7c-11.7,11.9-22.3,24.9-35.5,35.1c1.6-1.6,3.3-3.8,5.3-4.9
		c-0.8,1.6-3.4,4.8-5.3,4.9c13.3-14,26.1-28.7,36-45.4"/>
	<path class="st3" d="M360.2,520.9c11.7-7,24.3-13.4,34.2-23.7c4.8-4.2,6-10.8,4-17.3c-1.5-4.1-3.9-6.8-6.9-8.7
		c-7.1-3.6-16.3-2.3-21.1,5c-6,10.8-9.1,23.4-12.8,35.6c-0.7,2.7-2.2,4.9-5.3,3.8"/>
	<path class="st4" d="M322.7,555.2l1.3,1.5c0,0,2.1,1.3,2.7-1.6c0,0-0.4-0.8-1.9-2.2l-2,1.3L322.7,555.2z"/>
	<path class="st4" d="M324.3,552.2l-6.4-9.5c0,0,0.7-1,0-1.6c0,0,0.9,0.1-1.8-1.2l-10.3-14.3l-2.5,1.5l8.6,12.3l2,3.1
		c0,0-0.8,2.1,1.8,2l6.9,9.2L324.3,552.2z"/>
	<path class="st4" d="M308.3,522.7c0,0-5.7,5.7-8.5,6.2l-5.3-7.2l8.7-6.4L308.3,522.7z"/>
	<path class="st4" d="M265.7,472.4c7.3,9.4,14.2,19.1,21.1,28.9c2.6,3.8,5.2,7.7,8,11.3c0.9,1.1,4.3,4.7,3.2,6.2l-15.4-19.3
		c-1.8-5.4-8.8-8.3-10.4-14.1"/>
	<path class="st4" d="M293.7,521.7c0.8-0.7,1.5-1.4,2.3-2.1c-4.3-3.3-8.5-6.7-12.7-10.2c-3.4-2.8-7.2-5.3-10.5-8.3
		c-5.6-5.1-9.8-12.2-10.3-19.9c-0.3-4.6,0.7-8.9,6.4-7.7c0.1-0.5-0.6-2-1.3-1.2c0.8,0.8,0.8,0.8,1.4,1.4c0.7-1.8,3.1-1.6,4.3-1.5
		c7.7,2.4,14.1,5.8,16.6,13.9c2.3,10.5,6.5,20.4,10.3,30.7c-0.4-0.9-0.9-1.8-0.9-2.8c0.8,0.5,1.5,1.9,0.9,2.8
		c-7.4-14.2-12.4-30.6-24.7-41.6c1.2,2.1,2.3,4.6,4,6.4c-0.5-2.2-2.4-4.7-4-6.4c8.1,14.1,17.5,27.5,23.6,42.6
		c-1.1-1.9-2.7-4.1-3.2-6.2c1.3,1.2,3.6,4.5,3.2,6.2c-9.6-16.2-20-32-33-45.7"/>
	<path class="st4" d="M301.2,515.9c-3.5-12.8-6.2-26.3-13.2-38.3c-2.6-5.6-8.5-8.5-15.2-8.3c-4.3,0.3-7.4,1.9-10,4.2
		c-5.2,5.7-6.5,14.7-0.9,21.1c8.5,8.5,19.6,14.7,30,21.4c2.3,1.4,4,3.3,2.2,5.9"/>
	<circle class="st5" cx="333.4" cy="360" r="291.8"/>
</g>
</svg>
